<?xml version="1.0" encoding="UTF-8" standalone="no"?>
<!-- Created with Inkscape (http://www.inkscape.org/) -->

<svg
   version="1.1"
   id="svg1"
   width="193.27998"
   height="358.72"
   viewBox="0 0 193.27998 358.72"
   xmlns="http://www.w3.org/2000/svg"
   xmlns:svg="http://www.w3.org/2000/svg">
  <defs
     id="defs1">
    <clipPath
       clipPathUnits="userSpaceOnUse"
       id="clipPath2">
      <path
         d="M 0,0 H 605 V 1118.9941 H 0 Z"
         transform="scale(0.31999999)"
         clip-rule="evenodd"
         id="path2" />
    </clipPath>
    <clipPath
       clipPathUnits="userSpaceOnUse"
       id="clipPath4">
      <path
         d="m 78.125,146.875 h 450 v 825 h -450 z"
         transform="matrix(0.45604973,0,0,0.45604973,121.94311,210.59255)"
         clip-rule="evenodd"
         id="path4" />
    </clipPath>
    <clipPath
       clipPathUnits="userSpaceOnUse"
       id="clipPath6">
      <path
         d="m 78.125,146.875 h 450 v 825 h -450 z"
         transform="matrix(0.45604973,0,0,0.45604973,-93.01001,-174.90745)"
         clip-rule="evenodd"
         id="path6" />
    </clipPath>
    <clipPath
       clipPathUnits="userSpaceOnUse"
       id="clipPath8">
      <path
         d="m 78.125,146.875 h 450 v 825 h -450 z"
         transform="matrix(0.45604973,0,0,0.45604973,121.94311,210.59255)"
         clip-rule="evenodd"
         id="path8" />
    </clipPath>
    <clipPath
       clipPathUnits="userSpaceOnUse"
       id="clipPath10">
      <path
         d="m 78.125,146.875 h 450 v 825 h -450 z"
         transform="matrix(0.45604973,0,0,0.45604973,-93.994381,-94.907452)"
         clip-rule="evenodd"
         id="path10" />
    </clipPath>
    <clipPath
       clipPathUnits="userSpaceOnUse"
       id="clipPath12">
      <path
         d="m 78.125,146.875 h 450 v 825 h -450 z"
         transform="matrix(0.45604973,0,0,0.45604973,121.94311,210.59255)"
         clip-rule="evenodd"
         id="path12" />
    </clipPath>
    <clipPath
       clipPathUnits="userSpaceOnUse"
       id="clipPath14">
      <path
         d="m 78.125,146.875 h 450 v 825 h -450 z"
         transform="matrix(0.45604973,0,0,0.45604973,-101.99438,-254.90746)"
         clip-rule="evenodd"
         id="path14" />
    </clipPath>
    <clipPath
       clipPathUnits="userSpaceOnUse"
       id="clipPath16">
      <path
         d="m 78.125,146.875 h 450 v 825 h -450 z"
         transform="matrix(0.45604973,0,0,0.45604973,121.94311,210.59255)"
         clip-rule="evenodd"
         id="path16" />
    </clipPath>
    <clipPath
       clipPathUnits="userSpaceOnUse"
       id="clipPath18">
      <path
         d="m 78.125,146.875 h 450 v 825 h -450 z"
         transform="matrix(0.45604973,0,0,0.45604973,121.94311,210.59255)"
         clip-rule="evenodd"
         id="path18" />
    </clipPath>
    <clipPath
       clipPathUnits="userSpaceOnUse"
       id="clipPath20">
      <path
         d="m 78.125,146.875 h 450 v 825 h -450 z"
         transform="matrix(0.45604973,0,0,0.45604973,121.94311,210.59255)"
         clip-rule="evenodd"
         id="path20" />
    </clipPath>
    <clipPath
       clipPathUnits="userSpaceOnUse"
       id="clipPath22">
      <path
         d="m 78.125,146.875 h 450 v 825 h -450 z"
         transform="matrix(0.45604973,0,0,0.45604973,121.94311,210.59255)"
         clip-rule="evenodd"
         id="path22" />
    </clipPath>
    <clipPath
       clipPathUnits="userSpaceOnUse"
       id="clipPath24">
      <path
         d="m 78.125,146.875 h 450 v 825 h -450 z"
         transform="matrix(0.45604973,0,0,0.45604973,121.94311,210.59255)"
         clip-rule="evenodd"
         id="path24" />
    </clipPath>
    <clipPath
       clipPathUnits="userSpaceOnUse"
       id="clipPath26">
      <path
         d="m 78.125,146.875 h 450 v 825 h -450 z"
         transform="matrix(0.45604973,0,0,0.45604973,-88.07251,-334.90745)"
         clip-rule="evenodd"
         id="path26" />
    </clipPath>
    <clipPath
       clipPathUnits="userSpaceOnUse"
       id="clipPath28">
      <path
         d="m 78.125,146.875 h 450 v 825 h -450 z"
         transform="matrix(0.45604973,0,0,0.45604973,121.94311,210.59255)"
         clip-rule="evenodd"
         id="path28" />
    </clipPath>
    <clipPath
       clipPathUnits="userSpaceOnUse"
       id="clipPath30">
      <path
         d="m 78.125,146.875 h 450 v 825 h -450 z"
         transform="matrix(0.45604973,0,0,0.45604973,121.94311,210.59255)"
         clip-rule="evenodd"
         id="path30" />
    </clipPath>
    <clipPath
       clipPathUnits="userSpaceOnUse"
       id="clipPath32">
      <path
         d="m 78.125,146.875 h 450 v 825 h -450 z"
         transform="matrix(0.45604973,0,0,0.45604973,121.94311,210.59255)"
         clip-rule="evenodd"
         id="path32" />
    </clipPath>
    <clipPath
       clipPathUnits="userSpaceOnUse"
       id="clipPath34">
      <path
         d="m 78.125,146.875 h 450 v 825 h -450 z"
         transform="matrix(0.45604973,0,0,0.45604973,-55.90063,-409.90745)"
         clip-rule="evenodd"
         id="path34" />
    </clipPath>
    <clipPath
       clipPathUnits="userSpaceOnUse"
       id="clipPath36">
      <path
         d="m 78.125,146.875 h 450 v 825 h -450 z"
         transform="matrix(0.45604973,0,0,0.45604973,-69.51001,-429.90745)"
         clip-rule="evenodd"
         id="path36" />
    </clipPath>
    <clipPath
       clipPathUnits="userSpaceOnUse"
       id="clipPath38">
      <path
         d="m 78.125,146.875 h 450 v 825 h -450 z"
         transform="matrix(0.45604973,0,0,0.45604973,121.94311,210.59255)"
         clip-rule="evenodd"
         id="path38" />
    </clipPath>
    <clipPath
       clipPathUnits="userSpaceOnUse"
       id="clipPath40">
      <path
         d="m 78.125,146.875 h 450 v 825 h -450 z"
         transform="matrix(0.45604973,0,0,0.45604973,121.94311,210.59255)"
         clip-rule="evenodd"
         id="path40" />
    </clipPath>
  </defs>
  <g
     id="g1">
    <path
       id="path1"
       d="M 0,0 H 194 V 358 H 0 Z"
       style="fill:#ffffff;fill-opacity:1;fill-rule:nonzero;stroke:none"
       clip-path="url(#clipPath2)" />
    <path
       id="path3"
       d="m 186,360 h 148 c 0.79562,0 1.56097,0.15222 2.29605,0.4567 0.73508,0.30447 1.38394,0.73803 1.94656,1.30065 0.5626,0.5626 0.99616,1.21143 1.30063,1.94651 0.30448,0.73507 0.45673,1.50046 0.45676,2.29614 v 28 c -3e-5,0.79562 -0.15228,1.56097 -0.45676,2.29605 -0.30447,0.73508 -0.73803,1.38394 -1.30063,1.94656 -0.56262,0.5626 -1.21148,0.99613 -1.94656,1.3006 C 335.56097,399.84769 334.79562,399.99997 334,400 H 186 c -0.79567,-3e-5 -1.56105,-0.15231 -2.29614,-0.45679 -0.73506,-0.30447 -1.3839,-0.738 -1.94651,-1.3006 -0.56262,-0.56262 -0.99617,-1.21148 -1.30064,-1.94656 C 180.15224,395.56097 180,394.79562 180,394 v -28 c 0,-0.79568 0.15224,-1.56107 0.45671,-2.29614 0.30447,-0.73508 0.73802,-1.38391 1.30064,-1.94651 0.56261,-0.56262 1.21145,-0.99618 1.94652,-1.30065 C 184.43896,360.15222 185.20433,360 186,360 Z"
       style="fill:#fff2cc;fill-opacity:1;fill-rule:nonzero;stroke:#d6b656;stroke-width:3;stroke-linecap:butt;stroke-linejoin:miter;stroke-miterlimit:10;stroke-dasharray:none;stroke-opacity:1"
       transform="matrix(0.70167783,0,0,0.70167783,-85.56478,-147.76812)"
       clip-path="url(#clipPath4)" />
    <g
       id="g4" />
    <path
       id="path5"
       d="M 7.7028325,0.00254796 V -6.3215795 c 0,-0.2783507 -0.016701,-0.5121652 -0.044536,-0.6903097 -0.016701,-0.1781444 -0.044536,-0.3117527 -0.089072,-0.4008249 -0.044536,-0.1002063 -0.1057732,-0.1781445 -0.1781444,-0.2226806 -0.061237,-0.044536 -0.1447424,-0.066804 -0.2449486,-0.066804 -0.1224743,0 -0.2338146,0.038969 -0.3340208,0.1113403 -0.089072,0.061237 -0.1948455,0.1725774 -0.3117528,0.3340208 -0.1224743,0.1670104 -0.2449486,0.378557 -0.3785569,0.6457736 -0.1336083,0.2560826 -0.3006187,0.5734024 -0.4898972,0.9575263 V 0.00254796 H 4.251284 V -6.1657031 c 0,-0.3228868 -0.016701,-0.5845364 -0.044536,-0.7793819 C 4.190047,-7.1343635 4.162212,-7.2846728 4.117676,-7.3904461 4.07314,-7.5073534 4.0119028,-7.5908586 3.9395316,-7.6353947 c -0.077938,-0.044536 -0.1558764,-0.066804 -0.2449486,-0.066804 -0.1057733,0 -0.2115465,0.033402 -0.3117528,0.089072 -0.089072,0.061237 -0.1948455,0.1670104 -0.3117527,0.3117527 -0.1057733,0.1503094 -0.2338146,0.3562889 -0.378557,0.6235055 C 2.5589122,-6.4106518 2.3919018,-6.065497 2.2026233,-5.653538 V 0.00254796 H 0.79973561 V -8.8156016 H 1.9576744 l 0.066804,1.6701041 C 2.169221,-7.4683843 2.3195303,-7.752302 2.4698397,-7.9916836 2.614582,-8.2254981 2.7648914,-8.4147766 2.9152008,-8.5483849 3.0599431,-8.6931273 3.2269535,-8.7989005 3.405098,-8.8601377 3.5832424,-8.9325089 3.7725209,-8.971478 3.9840674,-8.971478 c 0.4731961,0 0.829485,0.1558764 1.0688666,0.4676292 0.2505156,0.3117528 0.3785569,0.7905159 0.3785569,1.4251555 0.1336083,-0.2950518 0.2672167,-0.5622684 0.400825,-0.80165 0.1336083,-0.2338146 0.2727837,-0.434227 0.423093,-0.6012375 0.1614434,-0.1614434 0.3395879,-0.2783506 0.5344333,-0.3562888 0.1892785,-0.089072 0.406392,-0.1336084 0.6457736,-0.1336084 1.1134027,0 1.6701041,0.8573201 1.6701041,2.5608263 V 0.00254796 Z M 11.655412,-8.8156016 H 13.0583 l 0.04454,1.625568 c 0.517732,-0.6235055 1.029897,-1.0744336 1.536495,-1.3583513 0.501032,-0.2783507 1.013197,-0.4230931 1.536496,-0.4230931 0.918557,0 1.608867,0.3006188 2.070929,0.8907222 0.473196,0.5789694 0.695877,1.4585576 0.668042,2.6276304 h -1.558764 c 0.02783,-0.7682478 -0.08351,-1.3249492 -0.334021,-1.670104 -0.239381,-0.3562889 -0.59567,-0.5344333 -1.068866,-0.5344333 -0.211547,0 -0.417526,0.038969 -0.623506,0.1113402 -0.211546,0.077938 -0.423093,0.1948455 -0.645773,0.3562889 -0.211547,0.1670104 -0.439795,0.3729899 -0.69031,0.6235055 -0.239382,0.2393816 -0.501031,0.5455674 -0.779382,0.9129902 v 5.65608586 h -1.558764 z m 16.400422,8.48412875 c -0.400825,0.1670104 -0.812784,0.28391769 -1.224743,0.35628887 -0.417526,0.07237117 -0.846186,0.11134027 -1.291547,0.11134027 -1.39732,0 -2.471754,-0.37855693 -3.228868,-1.13567078 -0.757114,-0.75711381 -1.135671,-1.85938251 -1.135671,-3.31794011 0,-0.6958767 0.111341,-1.3249492 0.334021,-1.8927846 0.222681,-0.5789694 0.523299,-1.0688666 0.91299,-1.4696916 0.384124,-0.400825 0.851753,-0.7125777 1.402888,-0.9352583 0.545567,-0.2226805 1.146805,-0.3340208 1.803712,-0.3340208 0.456495,0 0.879588,0.038969 1.269279,0.1113403 0.400825,0.061237 0.784949,0.1670104 1.157939,0.3117527 v 1.4474236 c -0.389691,-0.1892785 -0.779382,-0.3340208 -1.180207,-0.4230931 -0.389691,-0.089072 -0.790516,-0.1336083 -1.202475,-0.1336083 -0.400825,0 -0.779382,0.077938 -1.13567,0.2226806 -0.345155,0.1503093 -0.645774,0.3674229 -0.912991,0.6457735 -0.256082,0.2839177 -0.462062,0.6235056 -0.623505,1.0243305 -0.15031,0.400825 -0.222681,0.8628871 -0.222681,1.3806194 0,1.0577326 0.256083,1.8482485 0.779382,2.3826818 0.517732,0.5344333 1.235877,0.80165 2.160001,0.80165 0.411959,0 0.812784,-0.044536 1.202475,-0.1336083 0.384124,-0.1002063 0.762681,-0.2505157 1.135671,-0.4453611 z M 38.772335,-4.473331 c 0,0.6847427 -0.100206,1.3138152 -0.289484,1.8927847 -0.194846,0.5678353 -0.478764,1.0577325 -0.846186,1.4696915 -0.356289,0.40082502 -0.796083,0.71257778 -1.313816,0.93525833 -0.523299,0.22268054 -1.113402,0.33402081 -1.781444,0.33402081 -0.623506,0 -1.191341,-0.10020624 -1.692372,-0.28948471 -0.506598,-0.18927846 -0.935258,-0.47876316 -1.291547,-0.86845412 -0.345155,-0.38412391 -0.612372,-0.85175311 -0.80165,-1.40288741 -0.178145,-0.5622684 -0.267217,-1.213609 -0.267217,-1.9595888 0,-0.6791757 0.09464,-1.3026812 0.289485,-1.8705166 0.189278,-0.5622683 0.467629,-1.0465985 0.823918,-1.4474235 0.367423,-0.411959 0.812784,-0.7348458 1.336083,-0.9575263 0.517732,-0.2226806 1.113403,-0.3340209 1.781444,-0.3340209 0.63464,0 1.202475,0.1002063 1.692373,0.2894848 0.501031,0.1948454 0.924124,0.4843301 1.269279,0.8684541 0.356289,0.3729899 0.623505,0.840619 0.80165,1.4028874 0.189278,0.5678354 0.289484,1.213609 0.289484,1.9373207 z m -1.558763,0.066804 c 0,-0.5455673 -0.06124,-1.0243305 -0.178145,-1.4251555 -0.122474,-0.411959 -0.289485,-0.7571138 -0.512165,-1.0243305 -0.222681,-0.2672166 -0.501031,-0.4676291 -0.823918,-0.6012375 -0.311753,-0.1447423 -0.668042,-0.2226805 -1.068867,-0.2226805 -0.462062,0 -0.85732,0.089072 -1.180207,0.2672167 -0.311752,0.1781444 -0.573402,0.417526 -0.779382,0.7125777 -0.211546,0.3006187 -0.367422,0.6457736 -0.467629,1.0465985 -0.08907,0.400825 -0.133608,0.818351 -0.133608,1.2470111 0,0.5511343 0.05567,1.0354645 0.178144,1.4474235 0.116908,0.400825 0.289485,0.7459799 0.512166,1.0243305 0.22268,0.2672167 0.489897,0.4676292 0.80165,0.6012375 0.311752,0.1336083 0.668041,0.2004125 1.068866,0.2004125 0.456495,0 0.851753,-0.089072 1.180207,-0.2672167 0.322887,-0.1781444 0.590104,-0.411959 0.80165,-0.7125777 0.20598,-0.2950517 0.356289,-0.6346396 0.445361,-1.0243305 0.100206,-0.400825 0.155877,-0.823918 0.155877,-1.2692791 z m 3.774435,-4.4090748 h 1.358351 l 0.0668,1.4251555 c 0.250516,-0.3117528 0.495464,-0.5622684 0.734846,-0.7571138 0.250516,-0.2059795 0.489897,-0.3674229 0.712578,-0.4898972 0.233814,-0.1336084 0.473196,-0.2226806 0.712577,-0.2672167 0.233815,-0.044536 0.489898,-0.066804 0.757114,-0.066804 0.901857,0 1.586599,0.2672167 2.048661,0.80165 0.473197,0.5344333 0.712578,1.3472173 0.712578,2.4272179 V 0.00254796 H 46.55502 V -5.6312698 c 0,-0.6791757 -0.133608,-1.1857739 -0.400825,-1.5142277 -0.256082,-0.3395878 -0.634639,-0.5121652 -1.13567,-0.5121652 -0.194846,0 -0.378557,0.033402 -0.556702,0.089072 -0.178144,0.044536 -0.367423,0.1447423 -0.556701,0.2894847 -0.194846,0.1336083 -0.400825,0.3228868 -0.623506,0.5567013 -0.22268,0.2393816 -0.478763,0.5288663 -0.757114,0.8684542 v 5.85649826 h -1.536495 z m 9.074232,0 h 1.736908 l 2.160001,5.8342303 0.46763,1.4251555 0.489897,-1.4696916 2.137733,-5.7896942 h 1.670104 l -3.451548,8.81814956 h -1.759177 z m 18.181866,3.9414457 c 0,0.2226805 -0.01113,0.411959 -0.02227,0.5567013 0,0.1336083 -0.01113,0.2672167 -0.02227,0.400825 H 62.00905 c 0,0.9074232 0.250516,1.6032999 0.757114,2.0931971 0.501031,0.4787632 1.23031,0.7125777 2.182269,0.7125777 0.250516,0 0.501031,-0.00557 0.757114,-0.022268 0.267217,-0.027835 0.517732,-0.05567 0.757114,-0.089072 0.233815,-0.044536 0.467629,-0.089072 0.69031,-0.1336084 0.22268,-0.044536 0.423093,-0.089072 0.601237,-0.1336083 v 1.24701106 c -0.417526,0.1224743 -0.885155,0.21711353 -1.402887,0.28948471 -0.5233,0.07237118 -1.0633,0.11134027 -1.625568,0.11134027 -0.757114,0 -1.414022,-0.10577326 -1.959589,-0.31175276 -0.534433,-0.2059795 -0.979794,-0.50103122 -1.336083,-0.89072218 -0.345155,-0.3841239 -0.601238,-0.8573201 -0.779382,-1.4251555 -0.167011,-0.5622683 -0.244949,-1.2024749 -0.244949,-1.9150527 0,-0.6235055 0.08907,-1.2080419 0.267217,-1.7591762 0.178144,-0.5622684 0.434227,-1.0521656 0.779382,-1.4696916 0.339588,-0.411959 0.757114,-0.7404128 1.247011,-0.9797944 0.501031,-0.2505156 1.074433,-0.378557 1.71464,-0.378557 0.606804,0 1.146805,0.1002063 1.625568,0.2894848 0.473196,0.1948454 0.874021,0.4676291 1.202475,0.823918 0.322887,0.3562888 0.567835,0.7905159 0.734846,1.2915471 0.178144,0.5065983 0.267216,1.0688666 0.267216,1.692372 z m -1.6033,-0.2226806 c 0.01113,-0.3841239 -0.02227,-0.7404128 -0.11134,-1.0688666 -0.08907,-0.3228868 -0.239381,-0.6068045 -0.445361,-0.8461861 -0.194845,-0.2338145 -0.439794,-0.411959 -0.734846,-0.5344333 -0.283917,-0.1336083 -0.617938,-0.2004125 -1.002062,-0.2004125 -0.345155,0 -0.656908,0.066804 -0.935259,0.2004125 -0.267216,0.1224743 -0.501031,0.3006188 -0.690309,0.5344333 -0.194846,0.2393816 -0.356289,0.5232993 -0.489897,0.8461861 -0.122475,0.3284538 -0.194846,0.6847427 -0.222681,1.0688666 z m 4.392374,-3.7187651 h 1.402888 l 0.04454,1.625568 c 0.517732,-0.6235055 1.029897,-1.0744336 1.536495,-1.3583513 0.501032,-0.2783507 1.013197,-0.4230931 1.536496,-0.4230931 0.918557,0 1.608867,0.3006188 2.070929,0.8907222 0.473196,0.5789694 0.695877,1.4585576 0.668042,2.6276304 h -1.558764 c 0.02783,-0.7682478 -0.08351,-1.3249492 -0.334021,-1.670104 -0.239381,-0.3562889 -0.59567,-0.5344333 -1.068866,-0.5344333 -0.211547,0 -0.417526,0.038969 -0.623506,0.1113402 -0.211546,0.077938 -0.423093,0.1948455 -0.645774,0.3562889 -0.211546,0.1670104 -0.439794,0.3729899 -0.690309,0.6235055 -0.239382,0.2393816 -0.501031,0.5455674 -0.779382,0.9129902 v 5.65608586 h -1.558764 z m 16.645371,8.68454123 c -0.345155,0.08907222 -0.701444,0.15587639 -1.068867,0.20041249 -0.37299,0.04453611 -0.74598,0.06680417 -1.113403,0.06680417 -1.113402,0 -1.948454,-0.25051561 -2.494022,-0.75711385 -0.534433,-0.50103124 -0.80165,-1.27484614 -0.80165,-2.31587764 v -4.6094873 h -2.471754 v -1.2692791 h 2.471754 v -2.4272172 l 1.514228,-0.400825 v 2.8280422 h 3.963714 v 1.2692791 h -3.963714 v 4.498147 c 0,0.6235055 0.16701,1.1022687 0.512165,1.4251555 0.339588,0.3117528 0.835052,0.4676291 1.49196,0.4676291 0.278351,0 0.584536,-0.022268 0.91299,-0.066804 0.339588,-0.044536 0.69031,-0.1169073 1.046599,-0.2226806 z m 0,0"
       style="fill:#000000;fill-opacity:1;fill-rule:nonzero;stroke:none"
       aria-label="mrconvert"
       transform="matrix(0.70167783,0,0,0.70167783,65.263062,122.72868)"
       clip-path="url(#clipPath6)" />
    <path
       id="path7"
       d="m 200,280 h 120 v 40 H 200 Z"
       style="fill:#ffffff;fill-opacity:1;fill-rule:nonzero;stroke:#000000;stroke-width:1;stroke-linecap:butt;stroke-linejoin:miter;stroke-miterlimit:10;stroke-dasharray:none;stroke-opacity:1"
       transform="matrix(0.70167783,0,0,0.70167783,-85.56478,-147.76812)"
       clip-path="url(#clipPath8)" />
    <g
       id="g8" />
    <path
       id="path9"
       d="M 4.1409352,-0.00100439 V -10.110701 H 0.37763398 v -1.358351 H 9.4630002 v 1.358351 H 5.6774309 v 10.10969661 z m 11.6016558,0 H 14.339704 V -8.9750303 c -0.345155,0.3284538 -0.790516,0.6569076 -1.336083,0.9797944 -0.551135,0.3284538 -1.046599,0.5734024 -1.49196,0.7348458 v -1.3806194 c 0.784949,-0.3674229 1.475259,-0.812784 2.070929,-1.3360833 0.590104,-0.5177322 1.00763,-1.0298972 1.247011,-1.5364962 h 0.91299 z m 5.511344,0 -2.538558,-8.30598431 H 20.1628 l 1.336084,4.7876317 0.489897,1.7814444 c 0.01113,-0.089072 0.155876,-0.6513406 0.423093,-1.6923722 l 1.313815,-4.8767039 h 1.447424 l 1.247011,4.8098998 0.423093,1.6032999 0.467629,-1.6032999 1.425155,-4.8098998 h 1.38062 l -2.605363,8.30598431 H 26.041567 L 24.727751,-4.9667805 24.415999,-6.391936 22.723627,-0.00100439 Z M 38.411471,3.3614718 C 37.637656,2.3816774 36.986315,1.2348726 36.451882,-0.06780856 35.917449,-1.3871908 35.650232,-2.7455421 35.650232,-4.1428625 c 0,-1.2470111 0.200413,-2.438352 0.601238,-3.5851568 0.456495,-1.3026811 1.180206,-2.6109297 2.160001,-3.9191777 h 1.002062 c -0.623505,1.085568 -1.041031,1.8593827 -1.247011,2.3158778 -0.311753,0.7125778 -0.556701,1.4641246 -0.734846,2.2490735 -0.239381,0.9797944 -0.356288,1.9595888 -0.356288,2.9393832 0,2.5107231 0.779381,5.01031223 2.338145,7.5043343 z m 3.034022,-3.36247619 V -1.6043043 h 1.6033 v 1.60329991 z m 4.047219,0 V -8.3069887 h 1.269279 v 1.1802069 c 0.606805,-0.9018562 1.49196,-1.3583513 2.649899,-1.3583513 0.501031,0 0.963093,0.089072 1.380619,0.2672166 0.411959,0.1781445 0.723712,0.4175261 0.935258,0.7125778 0.20598,0.2839177 0.356289,0.6235055 0.445361,1.0243305 0.04454,0.2672166 0.06681,0.7292788 0.06681,1.3806194 v 5.09938441 H 50.837045 V -5.0558527 c 0,-0.5622684 -0.06124,-0.9853614 -0.178144,-1.2692791 -0.105774,-0.2950518 -0.300619,-0.5232993 -0.57897,-0.6903097 -0.267216,-0.1614434 -0.590103,-0.2449486 -0.957526,-0.2449486 -0.612371,0 -1.130104,0.1948455 -1.558764,0.5789694 -0.434227,0.3729899 -0.645773,1.0855676 -0.645773,2.1377332 v 4.54268311 z m 8.918356,-9.84248001 v -1.6255676 h 1.402887 v 1.6255676 z m 0,9.84248001 V -8.3069887 h 1.402887 v 8.30598431 z M 57.96839,-9.8434844 v -1.6255676 h 1.402887 v 1.6255676 z m 0,9.84248001 V -8.3069887 h 1.402887 v 8.30598431 z m 3.930311,0 V -1.6043043 h 1.6033 v 1.60329991 z m 3.80227,0.69030968 1.358352,0.20041249 c 0.05567,0.41195902 0.22268,0.71814472 0.489897,0.91299022 0.339588,0.2672167 0.812784,0.400825 1.425155,0.400825 0.651341,0 1.157939,-0.1336083 1.514228,-0.400825 0.356289,-0.2560826 0.590104,-0.6179385 0.712578,-1.09113465 0.07237,-0.2839177 0.11134,-0.87958815 0.11134,-1.80371245 -0.623505,0.72927882 -1.39732,1.09113471 -2.315877,1.09113471 -1.146805,0 -2.026393,-0.406392 -2.649899,-1.22474301 -0.623505,-0.829485 -0.935258,-1.8259804 -0.935258,-2.9839193 0,-0.7849489 0.139175,-1.5142277 0.423093,-2.1822693 0.295052,-0.6680416 0.712578,-1.1802069 1.247011,-1.5364958 0.545567,-0.3674228 1.191341,-0.5567013 1.937321,-0.5567013 0.979794,0 1.781444,0.395258 2.404949,1.1802069 v -1.0020625 h 1.313816 v 7.1703135 c 0,1.30268121 -0.133609,2.2268055 -0.400825,2.7612388 -0.267217,0.5344333 -0.69031,0.9575263 -1.269279,1.2692791 -0.567836,0.3117527 -1.263712,0.4676291 -2.093198,0.4676291 -0.979794,0 -1.781444,-0.2226805 -2.404949,-0.6680416 C 65.957054,2.2480691 65.667569,1.5800275 65.700971,0.68930529 Z M 66.85891,-4.2987389 c 0,1.0855677 0.211547,1.8816506 0.645774,2.3826818 0.42866,0.5065983 0.96866,0.7571139 1.625568,0.7571139 0.65134,0 1.191341,-0.2449486 1.625568,-0.7348458 0.445361,-0.5010312 0.668041,-1.2915472 0.668041,-2.3604138 0,-1.0076294 -0.233814,-1.7703103 -0.690309,-2.2936096 -0.445361,-0.5177322 -0.990929,-0.7793819 -1.625568,-0.7793819 -0.623506,0 -1.157939,0.2616497 -1.6033,0.7793819 -0.434227,0.5065983 -0.645774,1.2581451 -0.645774,2.2490735 z m 7.248252,4.29773451 V -1.1366752 l 5.277529,-6.0791788 c -0.595671,0.033402 -1.124537,0.044536 -1.581032,0.044536 h -3.384744 v -1.1356708 h 6.791756 v 0.9352583 l -4.498147,5.2775289 -0.868454,0.9575263 c 0.623506,-0.044536 1.213609,-0.066804 1.781445,-0.066804 h 3.830105 v 1.20247491 z m 9.669903,3.36247619 h -1.002063 c 1.558764,-2.49402207 2.338146,-4.9936112 2.338146,-7.5043343 0,-0.9797944 -0.122474,-1.9484548 -0.356289,-2.9171151 -0.178144,-0.7849489 -0.423093,-1.5364958 -0.734846,-2.2490735 -0.211546,-0.4731962 -0.623505,-1.2525779 -1.247011,-2.3381459 h 1.002063 c 0.979794,1.308248 1.697939,2.6164966 2.160001,3.9191777 0.400825,1.1468048 0.601237,2.3381457 0.601237,3.5851568 0,1.3973204 -0.267216,2.7556717 -0.80165,4.07505394 C 85.20222,1.2348726 84.545313,2.3816774 83.777065,3.3614718 Z m 0,0"
       style="fill:#000000;fill-opacity:1;fill-rule:nonzero;stroke:none"
       aria-label="T1w (.nii.gz)"
       transform="matrix(0.70167783,0,0,0.70167783,65.953773,66.594455)"
       clip-path="url(#clipPath10)" />
    <path
       id="path11"
       d="m 200,440 h 120 v 40 H 200 Z"
       style="fill:#dae8fc;fill-opacity:1;fill-rule:nonzero;stroke:#6c8ebf;stroke-width:1;stroke-linecap:butt;stroke-linejoin:miter;stroke-miterlimit:10;stroke-dasharray:none;stroke-opacity:1"
       transform="matrix(0.70167783,0,0,0.70167783,-85.56478,-147.76812)"
       clip-path="url(#clipPath12)" />
    <g
       id="g12" />
    <path
       id="path13"
       d="M 4.1407337,5.3330262e-4 V -10.109163 H 0.37743251 v -1.358352 H 9.4627987 v 1.358352 H 5.6772295 V 5.3330262e-4 Z m 11.6016563,0 H 14.339503 V -8.9734926 c -0.345155,0.3284538 -0.790516,0.6569076 -1.336084,0.9797944 -0.551134,0.3284538 -1.046598,0.5734024 -1.491959,0.7348458 v -1.3806194 c 0.784949,-0.3674229 1.475258,-0.812784 2.070929,-1.3360833 0.590103,-0.5177319 1.007629,-1.0298979 1.247011,-1.5364959 h 0.91299 z m 5.511343,0 L 18.715175,-8.305451 h 1.447424 l 1.336083,4.7876317 0.489897,1.7814444 c 0.01113,-0.089072 0.155877,-0.6513406 0.423093,-1.6923722 l 1.313816,-4.8767039 h 1.447423 l 1.247011,4.8098998 0.423093,1.6032999 0.467629,-1.6032999 1.425156,-4.8098998 h 1.380619 L 27.511057,5.3330262e-4 H 26.041365 L 24.72755,-4.9652428 24.415797,-6.3903983 22.723425,5.3330262e-4 Z M 38.411269,3.3630095 C 37.637454,2.3832151 36.986114,1.2364103 36.451681,-0.06627086 35.917247,-1.3856531 35.650031,-2.7440044 35.650031,-4.1413248 c 0,-1.2470111 0.200412,-2.438352 0.601237,-3.5851568 0.456495,-1.3026811 1.180207,-2.6109294 2.160001,-3.9191774 h 1.002063 c -0.623506,1.085568 -1.041032,1.8593824 -1.247011,2.3158775 -0.311753,0.7125778 -0.556702,1.4641246 -0.734846,2.2490735 -0.239382,0.9797944 -0.356289,1.9595888 -0.356289,2.9393832 0,2.5107231 0.779382,5.01031222 2.338146,7.5043343 z M 41.445292,5.3330262e-4 V -1.6027666 h 1.6033 V 5.3330262e-4 Z m 4.047219,0 V -8.305451 h 1.269279 v 1.1579388 c 0.250515,-0.4008249 0.590103,-0.7181447 1.02433,-0.9575263 0.445361,-0.2505156 0.940826,-0.3785569 1.49196,-0.3785569 0.606804,0 1.102269,0.1280413 1.49196,0.3785569 0.400825,0.2560826 0.679175,0.6123715 0.846186,1.0688666 0.668041,-0.9630933 1.519794,-1.4474235 2.560826,-1.4474235 0.829485,0 1.469691,0.2338146 1.915053,0.6903097 0.445361,0.4453611 0.668041,1.1468048 0.668041,2.0931971 V 5.3330262e-4 H 55.357259 V -5.2324595 c 0,-0.5622683 -0.05567,-0.9630933 -0.155877,-1.2024749 -0.08907,-0.2505156 -0.256082,-0.4509281 -0.489897,-0.6012375 -0.239381,-0.1447423 -0.523299,-0.2226805 -0.846186,-0.2226805 -0.578969,0 -1.063299,0.1948455 -1.447423,0.5789694 -0.389691,0.3896909 -0.57897,1.0020624 -0.57897,1.8482485 V 5.3330262e-4 H 50.436019 V -5.3883359 c 0,-0.6235055 -0.122475,-1.0911346 -0.356289,-1.4028874 -0.222681,-0.3117527 -0.595671,-0.4676291 -1.113403,-0.4676291 -0.400825,0 -0.773815,0.1057732 -1.113403,0.3117527 -0.328453,0.2115466 -0.567835,0.5121653 -0.712577,0.9129903 -0.15031,0.4008249 -0.222681,0.9797944 -0.222681,1.7369082 V 5.3330262e-4 Z M 58.842209,-9.8419467 v -1.6255683 h 1.402888 v 1.6255683 z m 0,9.84248000262 V -8.305451 h 1.402888 V 5.3330262e-4 Z m 3.869075,0 V -7.2143163 H 61.486541 V -8.305451 h 1.224743 v -0.8907222 c 0,-0.5455673 0.0501,-0.9575258 0.155876,-1.2247428 0.133608,-0.367423 0.367423,-0.668042 0.712578,-0.890722 0.339588,-0.222681 0.823918,-0.334021 1.447423,-0.334021 0.384124,0 0.823918,0.04454 1.313816,0.133608 l -0.222681,1.224743 c -0.283918,-0.05567 -0.556701,-0.08907 -0.823918,-0.08907 -0.434227,0 -0.734846,0.100206 -0.91299,0.289485 -0.178145,0.1781441 -0.267217,0.5232989 -0.267217,1.0243302 v 0.7571138 h 1.625568 v 1.0911347 H 64.114171 V 5.3330262e-4 Z M 67.754998,3.3630095 h -1.002062 c 1.558763,-2.49402208 2.338145,-4.9936112 2.338145,-7.5043343 0,-0.9797944 -0.122474,-1.9484548 -0.356289,-2.9171151 -0.178144,-0.784949 -0.423093,-1.5364958 -0.734845,-2.2490735 -0.211547,-0.4731962 -0.623506,-1.2525776 -1.247011,-2.3381456 h 1.002062 c 0.979794,1.308248 1.697939,2.6164963 2.160001,3.9191774 0.400825,1.1468048 0.601238,2.3381457 0.601238,3.5851568 0,1.3973204 -0.267217,2.7556717 -0.80165,4.07505394 C 69.180154,1.2364103 68.523246,2.3832151 67.754998,3.3630095 Z m 0,0"
       style="fill:#000000;fill-opacity:1;fill-rule:nonzero;stroke:none"
       aria-label="T1w (.mif)"
       transform="matrix(0.70167783,0,0,0.70167783,71.567195,178.86291)"
       clip-path="url(#clipPath14)" />
    <path
       id="path15"
       d="m 260,320 v 33.63"
       style="fill:none;stroke:#000000;stroke-width:1;stroke-linecap:butt;stroke-linejoin:miter;stroke-miterlimit:10;stroke-dasharray:none;stroke-opacity:1"
       transform="matrix(0.70167783,0,0,0.70167783,-85.56478,-147.76812)"
       clip-path="url(#clipPath16)" />
    <path
       id="path17"
       d="m 260,358.88 -3.5,-7 3.5,1.75 3.5,-1.75 z"
       style="fill:#000000;fill-opacity:1;fill-rule:nonzero;stroke:#000000;stroke-width:1;stroke-linecap:butt;stroke-linejoin:miter;stroke-miterlimit:10;stroke-dasharray:none;stroke-opacity:1"
       transform="matrix(0.70167783,0,0,0.70167783,-85.56478,-147.76812)"
       clip-path="url(#clipPath18)" />
    <path
       id="path19"
       d="m 260,400 v 33.63"
       style="fill:none;stroke:#000000;stroke-width:1;stroke-linecap:butt;stroke-linejoin:miter;stroke-miterlimit:10;stroke-dasharray:none;stroke-opacity:1"
       transform="matrix(0.70167783,0,0,0.70167783,-85.56478,-147.76812)"
       clip-path="url(#clipPath20)" />
    <path
       id="path21"
       d="m 260,438.88 -3.5,-7 3.5,1.75 3.5,-1.75 z"
       style="fill:#000000;fill-opacity:1;fill-rule:nonzero;stroke:#000000;stroke-width:1;stroke-linecap:butt;stroke-linejoin:miter;stroke-miterlimit:10;stroke-dasharray:none;stroke-opacity:1"
       transform="matrix(0.70167783,0,0,0.70167783,-85.56478,-147.76812)"
       clip-path="url(#clipPath22)" />
    <path
       id="path23"
       d="m 186,520 h 148 c 0.79562,0 1.56097,0.15222 2.29605,0.45667 0.73508,0.3045 1.38394,0.73803 1.94656,1.30065 0.5626,0.56257 0.99616,1.21143 1.30063,1.94654 0.30448,0.7351 0.45673,1.50049 0.45676,2.29614 v 28 c -3e-5,0.79559 -0.15228,1.56091 -0.45676,2.29602 -0.30447,0.73505 -0.73803,1.38391 -1.30063,1.94659 -0.56262,0.56257 -1.21148,0.9961 -1.94656,1.3006 C 335.56097,559.84772 334.79562,559.99994 334,560 H 186 c -0.79567,-6e-5 -1.56105,-0.15228 -2.29614,-0.45679 -0.73506,-0.3045 -1.3839,-0.73803 -1.94651,-1.3006 -0.56262,-0.56268 -0.99617,-1.21154 -1.30064,-1.94659 C 180.15224,555.56091 180,554.79559 180,554 v -28 c 0,-0.79565 0.15224,-1.56104 0.45671,-2.29614 0.30447,-0.73511 0.73802,-1.38397 1.30064,-1.94654 0.56261,-0.56262 1.21145,-0.99615 1.94652,-1.30065 C 184.43896,520.15222 185.20433,520 186,520 Z"
       style="fill:#fff2cc;fill-opacity:1;fill-rule:nonzero;stroke:#d6b656;stroke-width:3;stroke-linecap:butt;stroke-linejoin:miter;stroke-miterlimit:10;stroke-dasharray:none;stroke-opacity:1"
       transform="matrix(0.70167783,0,0,0.70167783,-85.56478,-147.76812)"
       clip-path="url(#clipPath24)" />
    <g
       id="g24" />
    <path
       id="path25"
       d="m 8.5708455,-3.6757103 c 0,0.5678354 -0.1280413,1.0855676 -0.3785569,1.5587638 -0.2393816,0.4620621 -0.5734024,0.8628871 -1.0020624,1.20247491 -0.4342271,0.34515485 -0.9463924,0.6123715 -1.5364958,0.80164996 -0.5789694,0.17814444 -1.213609,0.26721665 -1.8927846,0.26721665 -0.1781445,0 -0.3674229,-0.011134 -0.5567014,-0.022268 -0.1948455,0 -0.3896909,-0.011134 -0.5789694,-0.0222681 C 2.4304295,0.09315788 2.2355841,0.07645683 2.0463056,0.06532281 1.8681612,0.04862177 1.7011508,0.02635371 1.5564084,-0.00148136 V -1.3821007 c 0.3228868,0.077938 0.6903097,0.1336083 1.0911347,0.1781444 0.4008249,0.033402 0.8072169,0.044536 1.224743,0.044536 0.4731961,0 0.8962891,-0.050103 1.2692791,-0.1558764 0.3674228,-0.1169072 0.6903096,-0.2783506 0.9575263,-0.4898972 0.2672166,-0.2059795 0.4676291,-0.4564951 0.6012375,-0.7571138 0.1447423,-0.2950517 0.2226805,-0.6290725 0.2226805,-1.0020625 0,-0.7125777 -0.2616496,-1.23031 -0.7793819,-1.5587638 C 5.6370294,-5.4460207 4.9021836,-5.6130311 3.9390902,-5.6130311 H 1.7568209 V -11.491797 H 7.94734 v 1.336083 H 3.2042444 v 3.2288677 h 1.0020625 c 0.5455673,0 1.0800006,0.05567 1.6032999,0.1558764 0.5177322,0.1057733 0.9797944,0.2839177 1.3806194,0.5344333 0.411959,0.2393816 0.7459798,0.5678354 1.0020624,0.9797944 0.2505156,0.417526 0.3785569,0.9463923 0.3785569,1.5810319 z m 9.8313465,3.54062062 c -0.345155,0.08907222 -0.701444,0.15587638 -1.068867,0.20041249 -0.37299,0.04453611 -0.74598,0.06680416 -1.113403,0.06680416 -1.113403,0 -1.948455,-0.25051561 -2.494022,-0.75711385 C 13.191467,-1.1260181 12.92425,-1.899833 12.92425,-2.9408645 v -4.6094873 h -2.471754 v -1.2692791 h 2.471754 v -2.4272181 l 1.514228,-0.400825 v 2.8280431 h 3.963714 v 1.2692791 h -3.963714 v 4.498147 c 0,0.6235055 0.16701,1.1022687 0.512165,1.4251555 0.339588,0.3117527 0.835052,0.4676291 1.49196,0.4676291 0.27835,0 0.584536,-0.022268 0.91299,-0.066804 0.339588,-0.044536 0.69031,-0.1169073 1.046599,-0.2226806 z m 9.89815,0 c -0.345155,0.08907222 -0.701444,0.15587638 -1.068867,0.20041249 -0.37299,0.04453611 -0.74598,0.06680416 -1.113403,0.06680416 -1.113402,0 -1.948454,-0.25051561 -2.494022,-0.75711385 C 23.089617,-1.1260181 22.8224,-1.899833 22.8224,-2.9408645 V -7.5503518 H 20.350646 V -8.8196309 H 22.8224 v -2.4272181 l 1.514228,-0.400825 v 2.8280431 h 3.963714 v 1.2692791 h -3.963714 v 4.498147 c 0,0.6235055 0.16701,1.1022687 0.512165,1.4251555 0.339588,0.3117527 0.835052,0.4676291 1.49196,0.4676291 0.278351,0 0.584536,-0.022268 0.91299,-0.066804 0.339588,-0.044536 0.69031,-0.1169073 1.046599,-0.2226806 z m 9.141036,-7.43753012 c 0.161443,0.2115465 0.289485,0.445361 0.378557,0.7125777 0.100206,0.2672166 0.155876,0.5678354 0.155876,0.8907222 0,0.4453611 -0.08907,0.8628871 -0.267216,1.247011 -0.167011,0.3729899 -0.400825,0.7014437 -0.712578,0.9797944 -0.300619,0.2672167 -0.662475,0.4787632 -1.091135,0.6235055 -0.417526,0.1503094 -0.879588,0.2226806 -1.380619,0.2226806 -0.37299,0 -0.723712,-0.033402 -1.046599,-0.1113403 -0.328453,-0.089072 -0.578969,-0.1892785 -0.757114,-0.3117528 -0.122474,0.1670105 -0.217113,0.3228868 -0.289484,0.4676292 -0.07794,0.1503094 -0.11134,0.3117527 -0.11134,0.4898972 0,0.2226805 0.100206,0.411959 0.311752,0.5567013 0.222681,0.1503094 0.501032,0.2338146 0.846186,0.2449486 l 2.338146,0.089072 c 0.42866,0.016701 0.829485,0.077938 1.202475,0.1781444 0.367423,0.089072 0.69031,0.2338146 0.957526,0.42309302 0.267217,0.17814444 0.473196,0.41195901 0.623506,0.69030969 0.144742,0.26721665 0.22268,0.58453643 0.22268,0.95752634 0,0.38412395 -0.08907,0.74597985 -0.267216,1.09113465 -0.167011,0.3562889 -0.423093,0.6680416 -0.779382,0.9352583 -0.345155,0.2672166 -0.790516,0.4787632 -1.336083,0.6457736 -0.551135,0.1614434 -1.196908,0.2449486 -1.937321,0.2449486 -0.712578,0 -1.324949,-0.061237 -1.825981,-0.1781445 C 32.169416,3.3943969 31.75189,3.2329535 31.429003,3.026974 31.117251,2.8321286 30.883436,2.592747 30.738694,2.3143963 30.588384,2.0471796 30.516013,1.7409939 30.516013,1.4014061 c 0,-0.43422709 0.09464,-0.81278401 0.289485,-1.1356708 0.205979,-0.31175276 0.517732,-0.6123715 0.935258,-0.91299023 -0.150309,-0.0723712 -0.283918,-0.1614434 -0.400825,-0.26721666 -0.105773,-0.10020621 -0.194845,-0.21154651 -0.267217,-0.33402081 -0.07794,-0.1336083 -0.133608,-0.2672167 -0.178144,-0.400825 -0.0334,-0.1447423 -0.04454,-0.2894847 -0.04454,-0.423093 0,-0.384124 0.08907,-0.7348458 0.267217,-1.0465986 0.189278,-0.3117527 0.406392,-0.6068044 0.645773,-0.8907221 -0.105773,-0.1336084 -0.200412,-0.2672167 -0.289485,-0.400825 -0.08907,-0.1336083 -0.16701,-0.2727837 -0.22268,-0.4230931 -0.06124,-0.1447423 -0.105773,-0.3006187 -0.133608,-0.4676291 -0.0334,-0.1781444 -0.04454,-0.3785569 -0.04454,-0.6012375 0,-0.4564951 0.07794,-0.8740211 0.244949,-1.247011 0.161443,-0.3841239 0.389691,-0.7125778 0.69031,-0.9797944 0.311753,-0.2672167 0.673608,-0.4731962 1.091134,-0.6235055 0.42866,-0.1447424 0.901857,-0.2226806 1.425156,-0.2226806 0.205979,0 0.406392,0.016701 0.601237,0.044536 0.20598,0.033402 0.384124,0.066804 0.534434,0.1113403 h 3.2066 v 1.2470111 z m -5.299797,8.8404175 c 0,0.411959 0.211547,0.7181448 0.645774,0.9129903 0.42866,0.1892784 1.035464,0.2894847 1.82598,0.2894847 0.473196,0 0.874021,-0.044536 1.202475,-0.1336083 0.339588,-0.089072 0.606805,-0.2115466 0.80165,-0.3562889 0.20598,-0.1336083 0.356289,-0.3006188 0.445361,-0.4898972 0.08907,-0.1781444 0.133608,-0.3674229 0.133608,-0.55670137 0,-0.35628887 -0.150309,-0.62350552 -0.445361,-0.80164996 -0.300618,-0.16144339 -0.745979,-0.25608262 -1.336083,-0.28948471 l -2.315878,-0.0890722 c -0.194845,0.13360832 -0.356288,0.25608262 -0.489897,0.37855692 -0.122474,0.13360833 -0.217113,0.25608263 -0.289484,0.37855692 -0.06124,0.13360833 -0.105774,0.25608263 -0.133609,0.37855693 -0.0334,0.13360827 -0.04454,0.25608257 -0.04454,0.37855687 z m 0.467629,-7.2148496 c 0,0.2839177 0.04454,0.5455674 0.133609,0.7793819 0.100206,0.2393816 0.233814,0.4397941 0.400825,0.6012375 0.161443,0.1670104 0.361855,0.2894847 0.601237,0.3785569 0.233815,0.089072 0.495464,0.1336083 0.779382,0.1336083 0.295052,0 0.562268,-0.050103 0.80165,-0.1558763 0.233814,-0.1002063 0.434227,-0.2338146 0.601237,-0.400825 0.161444,-0.1781444 0.278351,-0.3785569 0.356289,-0.6012375 0.08907,-0.2338146 0.133609,-0.4787631 0.133609,-0.7348458 0,-0.2783507 -0.04454,-0.5344333 -0.133609,-0.7571138 -0.08907,-0.2338146 -0.22268,-0.4342271 -0.400825,-0.6012375 -0.16701,-0.1614434 -0.367423,-0.2894847 -0.601237,-0.3785569 -0.222681,-0.1002063 -0.478763,-0.1558764 -0.757114,-0.1558764 -0.311753,0 -0.590104,0.061237 -0.823918,0.1781444 -0.239382,0.1057733 -0.439794,0.2449486 -0.601238,0.4230931 -0.16701,0.1670104 -0.289484,0.3674229 -0.378557,0.6012374 -0.07794,0.2226806 -0.11134,0.4564952 -0.11134,0.6903097 z m 15.838154,1.0688666 c 0,0.2226806 -0.01113,0.411959 -0.02227,0.5567014 0,0.1336083 -0.01113,0.2672166 -0.02227,0.400825 h -6.190519 c 0,0.9074232 0.250515,1.6032999 0.757114,2.0931971 0.501031,0.4787632 1.23031,0.7125777 2.182269,0.7125777 0.250515,0 0.501031,-0.00557 0.757114,-0.022268 0.267216,-0.027835 0.517732,-0.05567 0.757114,-0.089072 0.233814,-0.044536 0.467629,-0.089072 0.690309,-0.1336084 0.222681,-0.044536 0.423093,-0.089072 0.601238,-0.1336083 v 1.24701105 c -0.417526,0.1224743 -0.885155,0.21711353 -1.402888,0.2894847 -0.523299,0.07237118 -1.063299,0.11134027 -1.625568,0.11134027 -0.757114,0 -1.414021,-0.10577325 -1.959588,-0.31175276 -0.534434,-0.2059795 -0.979795,-0.50103122 -1.336084,-0.89072216 -0.345155,-0.3841239 -0.601237,-0.8573201 -0.779382,-1.4251555 -0.16701,-0.5622684 -0.244948,-1.2024749 -0.244948,-1.9150527 0,-0.6235055 0.08907,-1.2080419 0.267216,-1.7591763 0.178145,-0.5622683 0.434227,-1.0521655 0.779382,-1.4696916 0.339588,-0.411959 0.757114,-0.7404128 1.247011,-0.9797943 0.501032,-0.2505157 1.074434,-0.378557 1.714641,-0.378557 0.606804,0 1.146804,0.1002063 1.625568,0.2894847 0.473196,0.1948455 0.874021,0.4676292 1.202474,0.823918 0.322887,0.3562889 0.567836,0.790516 0.734846,1.2915472 0.178145,0.5065982 0.267217,1.0688666 0.267217,1.6923721 z m -1.6033,-0.2226805 c 0.01113,-0.3841239 -0.02227,-0.7404128 -0.11134,-1.0688666 -0.08907,-0.3228868 -0.239382,-0.6068045 -0.445361,-0.8461861 -0.194846,-0.2338146 -0.439794,-0.411959 -0.734846,-0.5344333 -0.283918,-0.1336083 -0.617939,-0.2004125 -1.002063,-0.2004125 -0.345154,0 -0.656907,0.066804 -0.935258,0.2004125 -0.267217,0.1224743 -0.501031,0.3006187 -0.69031,0.5344333 -0.194845,0.2393816 -0.356288,0.5232993 -0.489897,0.8461861 -0.122474,0.3284538 -0.194845,0.6847427 -0.22268,1.0688666 z m 4.041652,-3.7187651 h 1.358351 l 0.0668,1.4251555 c 0.250516,-0.3117528 0.495465,-0.5622684 0.734846,-0.7571139 0.250516,-0.2059795 0.489897,-0.3674229 0.712578,-0.4898972 0.233814,-0.1336083 0.473196,-0.2226805 0.712578,-0.2672166 0.233814,-0.044536 0.489897,-0.066804 0.757113,-0.066804 0.901857,0 1.586599,0.2672167 2.048661,0.80165 0.473197,0.5344333 0.712578,1.3472173 0.712578,2.4272179 v 5.74515804 H 56.452729 V -5.6352991 c 0,-0.6791757 -0.133608,-1.1857739 -0.400825,-1.5142277 -0.256082,-0.3395878 -0.634639,-0.5121653 -1.13567,-0.5121653 -0.194846,0 -0.378557,0.033402 -0.556702,0.089072 -0.178144,0.044536 -0.367423,0.1447423 -0.556701,0.2894847 -0.194846,0.1336083 -0.400825,0.3228868 -0.623506,0.5567013 -0.22268,0.2393816 -0.478763,0.5288663 -0.757113,0.8684541 v 5.85649834 H 50.885716 Z M 78.514804,-11.0019 c -0.80165,-0.161444 -1.491959,-0.244949 -2.070929,-0.244949 -1.380619,0 -2.070929,0.723712 -2.070929,2.1600015 v 1.5364957 h 3.852374 v 1.2915472 h -3.852374 v 6.25732324 H 72.814182 V -6.2588046 h -2.828043 v -1.2915472 h 2.828043 v -1.4474235 c 0,-2.3437127 1.224743,-3.5183527 3.674229,-3.5183527 0.606805,0 1.280413,0.0668 2.026393,0.200413 z m -9.241242,2.1822691 z m 18.293206,6.4131997 c 0,0.3117527 -0.05567,0.5956704 -0.155876,0.846186 -0.105773,0.2393816 -0.256083,0.4564952 -0.445361,0.64577361 -0.178144,0.19484548 -0.389691,0.35628887 -0.623506,0.4898972 -0.239381,0.13360833 -0.501031,0.2449486 -0.779381,0.33402082 -0.267217,0.08907221 -0.551135,0.14474235 -0.846187,0.17814443 -0.283917,0.04453611 -0.556701,0.06680416 -0.823918,0.06680416 -0.59567,0 -1.146804,-0.0334021 -1.647836,-0.08907221 -0.506598,-0.04453611 -0.996495,-0.1224743 -1.469691,-0.2449486 V -1.5825132 c 0.517732,0.1503094 1.029897,0.2616496 1.536496,0.3340208 0.501031,0.077938 1.007629,0.1113403 1.514227,0.1113403 0.723712,0 1.269279,-0.094639 1.625568,-0.2894847 0.356289,-0.2059795 0.534434,-0.4954642 0.534434,-0.8684542 0,-0.1447423 -0.0334,-0.2783506 -0.08907,-0.4008249 -0.06124,-0.1336084 -0.16701,-0.2560827 -0.311752,-0.378557 C 85.451303,-3.1913801 85.228623,-3.3082874 84.91687,-3.4307617 84.605117,-3.547669 84.182024,-3.6868444 83.647591,-3.8538548 83.246766,-3.970762 82.873776,-4.1043704 82.534188,-4.2546797 82.205734,-4.3994221 81.91625,-4.5719995 81.665734,-4.766845 c -0.239382,-0.2059795 -0.434227,-0.4509281 -0.578969,-0.7348458 -0.133609,-0.2783507 -0.200413,-0.6068045 -0.200413,-0.9797944 0,-0.2338145 0.0501,-0.5010312 0.155876,-0.8016499 0.116908,-0.2950518 0.311753,-0.5678354 0.57897,-0.823918 0.278351,-0.2505157 0.656908,-0.4564952 1.135671,-0.6235056 0.473196,-0.1614434 1.057732,-0.2449486 1.759176,-0.2449486 0.339588,0 0.718145,0.022268 1.135671,0.066804 0.42866,0.033402 0.874021,0.089072 1.336083,0.1781444 v 1.3583513 c -0.489897,-0.116907 -0.951959,-0.2004122 -1.380619,-0.2449484 -0.434227,-0.05567 -0.80165,-0.089072 -1.113403,-0.089072 -0.389691,0 -0.712578,0.033402 -0.979794,0.089072 -0.256083,0.061237 -0.462063,0.1447424 -0.623506,0.2449486 -0.150309,0.1057733 -0.26165,0.2226806 -0.334021,0.3562889 -0.07794,0.1336083 -0.11134,0.2839177 -0.11134,0.4453611 0,0.1670104 0.02783,0.3117528 0.08907,0.4453611 0.05567,0.1224743 0.167011,0.2393816 0.334021,0.3562889 0.178144,0.1224743 0.411959,0.2393815 0.712578,0.3562888 0.295051,0.1224743 0.690309,0.2560827 1.180207,0.400825 0.517732,0.1503094 0.957526,0.3061858 1.313815,0.4676292 0.356289,0.1670104 0.645773,0.3507218 0.868454,0.5567013 0.22268,0.2115465 0.378557,0.4453611 0.467629,0.7125778 0.100206,0.2560826 0.155876,0.5455673 0.155876,0.8684541 z m 5.912169,-8.7513458 h -2.605363 v -1.247011 h 4.141859 v 11.1340275 h 2.62763 v 1.26927914 H 90.58409 V -1.2707605 h 2.894847 z m 0,0"
       style="fill:#000000;fill-opacity:1;fill-rule:nonzero;stroke:none"
       aria-label="5ttgen fsl"
       transform="matrix(0.70167783,0,0,0.70167783,61.798528,234.99713)"
       clip-path="url(#clipPath26)" />
    <path
       id="path27"
       d="m 260,480 v 33.63"
       style="fill:none;stroke:#000000;stroke-width:1;stroke-linecap:butt;stroke-linejoin:miter;stroke-miterlimit:10;stroke-dasharray:none;stroke-opacity:1"
       transform="matrix(0.70167783,0,0,0.70167783,-85.56478,-147.76812)"
       clip-path="url(#clipPath28)" />
    <path
       id="path29"
       d="m 260,518.88 -3.5,-7 3.5,1.75 3.5,-1.75 z"
       style="fill:#000000;fill-opacity:1;fill-rule:nonzero;stroke:#000000;stroke-width:1;stroke-linecap:butt;stroke-linejoin:miter;stroke-miterlimit:10;stroke-dasharray:none;stroke-opacity:1"
       transform="matrix(0.70167783,0,0,0.70167783,-85.56478,-147.76812)"
       clip-path="url(#clipPath30)" />
    <path
       id="path31"
       d="m 160,600 h 200 v 50 H 160 Z"
       style="fill:#dae8fc;fill-opacity:1;fill-rule:nonzero;stroke:#6c8ebf;stroke-width:1;stroke-linecap:butt;stroke-linejoin:miter;stroke-miterlimit:10;stroke-dasharray:none;stroke-opacity:1"
       transform="matrix(0.70167783,0,0,0.70167783,-85.56478,-147.76812)"
       clip-path="url(#clipPath32)" />
    <g
       id="g32" />
    <path
       id="path33"
       d="M 1.3115682,-0.00267422 V -11.470722 h 7.7270149 v 1.358351 H 2.8257959 v 3.5406207 h 5.3888692 v 1.3583514 H 2.8257959 v 5.21072468 z M 10.842296,-9.8451543 v -1.6255677 h 1.402887 v 1.6255677 z m 0,9.84248008 V -8.3086585 h 1.402887 v 8.30598428 z m 5.850931,0 -3.162064,-8.30598428 h 1.49196 l 1.781444,4.9657761 c 0.189279,0.5511344 0.367423,1.1134027 0.534433,1.6923722 0.116908,-0.4453611 0.289485,-0.9686604 0.512166,-1.5810319 l 1.848248,-5.0771164 h 1.447424 l -3.139796,8.30598428 z m 11.384543,-2.67216648 1.447423,0.1781444 c -0.239381,0.8461861 -0.668041,1.50866067 -1.291547,1.98185683 -0.612372,0.46206213 -1.39732,0.69030968 -2.360414,0.69030968 -1.219176,0 -2.182269,-0.36742289 -2.894847,-1.11340271 -0.712578,-0.7404128 -1.068866,-1.7870114 -1.068866,-3.1397957 0,-1.3917534 0.356288,-2.477321 1.068866,-3.2511359 0.723712,-0.7682479 1.65897,-1.1579388 2.805775,-1.1579388 1.113403,0 2.015259,0.3785569 2.716703,1.1356707 0.712577,0.7571139 1.068866,1.8204135 1.068866,3.1843318 0,0.077938 0,0.2004125 0,0.3785569 H 23.37921 c 0.04454,0.9074233 0.295052,1.6033 0.757114,2.0931971 0.473196,0.4787632 1.052166,0.71257779 1.736908,0.71257779 0.517732,0 0.957527,-0.13360829 1.313815,-0.40082499 0.367423,-0.2672166 0.668042,-0.6958767 0.890723,-1.2915471 z m -4.631756,-2.2713416 h 4.631756 c -0.06124,-0.6958767 -0.239382,-1.224743 -0.534434,-1.5810319 -0.445361,-0.5344333 -1.02433,-0.8016499 -1.736908,-0.8016499 -0.640207,0 -1.180207,0.2171135 -1.625568,0.6457736 -0.445361,0.434227 -0.69031,1.0131964 -0.734846,1.7369082 z m 15.08104,4.94350808 V -10.112371 h -3.763301 v -1.358351 h 9.085366 v 1.358351 H 40.06355 v 10.10969678 z m 6.107014,-9.84248008 v -1.6255677 h 1.402887 v 1.6255677 z m 0,9.84248008 V -8.3086585 h 1.402887 v 8.30598428 z m 2.972785,-2.47175408 1.402888,-0.2226805 c 0.07237,0.5511343 0.289484,0.9742274 0.645773,1.2692791 0.356289,0.3006187 0.851753,0.44536109 1.49196,0.44536109 0.651341,0 1.135671,-0.12247429 1.447423,-0.37855689 0.311753,-0.2672167 0.46763,-0.5789695 0.46763,-0.9352583 0,-0.3117528 -0.144743,-0.5622684 -0.423093,-0.7571139 -0.194846,-0.1169073 -0.668042,-0.2727836 -1.425156,-0.4676291 -1.041031,-0.2672167 -1.759176,-0.4898972 -2.160001,-0.6680416 -0.400825,-0.1892785 -0.707011,-0.4509281 -0.91299,-0.7793819 -0.194846,-0.3395879 -0.289485,-0.7181448 -0.289485,-1.1356708 0,-0.3674229 0.07794,-0.7125778 0.244948,-1.0243305 0.161444,-0.3117528 0.389691,-0.5678354 0.69031,-0.7793819 0.222681,-0.1614434 0.517732,-0.2950517 0.890722,-0.400825 0.384124,-0.1169073 0.790516,-0.1781444 1.224743,-0.1781444 0.651341,0 1.224743,0.1002062 1.714641,0.2894847 0.489897,0.1781444 0.851753,0.434227 1.091134,0.7571138 0.233815,0.3117528 0.400825,0.7348458 0.489897,1.2692791 l -1.380619,0.2004125 c -0.06124,-0.42866 -0.244949,-0.7626809 -0.556701,-1.0020624 -0.300619,-0.2338146 -0.723712,-0.3562889 -1.269279,-0.3562889 -0.640207,0 -1.102269,0.1057732 -1.38062,0.3117528 -0.267216,0.2115465 -0.400825,0.4620621 -0.400825,0.7571138 0,0.1781444 0.0501,0.3451548 0.155877,0.4898972 0.116907,0.1503094 0.300618,0.2783507 0.556701,0.3785569 0.133608,0.044536 0.545567,0.1670104 1.247011,0.3562889 0.990928,0.2672166 1.681238,0.4898972 2.070929,0.6680416 0.400825,0.1670104 0.712578,0.411959 0.935258,0.7348458 0.222681,0.3117528 0.334021,0.7070107 0.334021,1.1802069 0,0.4787632 -0.144742,0.9241243 -0.423093,1.3360833 -0.267217,0.41752598 -0.662475,0.73484575 -1.180207,0.9575263 -0.523299,0.22268054 -1.102268,0.33402081 -1.736908,0.33402081 -1.085568,0 -1.909486,-0.22268054 -2.471754,-0.66804163 C 48.130153,-0.9379325 47.768297,-1.5948401 47.606853,-2.4744283 Z m 7.999799,0 1.402887,-0.2226805 c 0.07237,0.5511343 0.289485,0.9742274 0.645774,1.2692791 0.356289,0.3006187 0.851753,0.44536109 1.491959,0.44536109 0.651341,0 1.135671,-0.12247429 1.447424,-0.37855689 0.311753,-0.2672167 0.467629,-0.5789695 0.467629,-0.9352583 0,-0.3117528 -0.144742,-0.5622684 -0.423093,-0.7571139 C 60.444387,-3.170305 59.97119,-3.3261813 59.214077,-3.5210268 58.173045,-3.7882435 57.4549,-4.010924 57.054075,-4.1890684 56.65325,-4.3783469 56.347065,-4.6399965 56.141085,-4.9684503 55.94624,-5.3080382 55.8516,-5.6865951 55.8516,-6.1041211 c 0,-0.3674229 0.07794,-0.7125778 0.244949,-1.0243305 0.161443,-0.3117528 0.389691,-0.5678354 0.69031,-0.7793819 0.22268,-0.1614434 0.517732,-0.2950517 0.890722,-0.400825 0.384124,-0.1169073 0.790516,-0.1781444 1.224743,-0.1781444 0.65134,0 1.224743,0.1002062 1.71464,0.2894847 0.489897,0.1781444 0.851753,0.434227 1.091135,0.7571138 0.233814,0.3117528 0.400825,0.7348458 0.489897,1.2692791 l -1.380619,0.2004125 c -0.06124,-0.42866 -0.244949,-0.7626809 -0.556702,-1.0020624 -0.300619,-0.2338146 -0.723712,-0.3562889 -1.269279,-0.3562889 -0.640206,0 -1.102269,0.1057732 -1.380619,0.3117528 -0.267217,0.2115465 -0.400825,0.4620621 -0.400825,0.7571138 0,0.1781444 0.0501,0.3451548 0.155876,0.4898972 0.116907,0.1503094 0.300619,0.2783507 0.556701,0.3785569 0.133609,0.044536 0.545568,0.1670104 1.247012,0.3562889 0.990928,0.2672166 1.681238,0.4898972 2.070929,0.6680416 0.400825,0.1670104 0.712577,0.411959 0.935258,0.7348458 0.22268,0.3117528 0.334021,0.7070107 0.334021,1.1802069 0,0.4787632 -0.144743,0.9241243 -0.423093,1.3360833 -0.267217,0.41752598 -0.662475,0.73484575 -1.180207,0.9575263 -0.5233,0.22268054 -1.102269,0.33402081 -1.736908,0.33402081 -1.085568,0 -1.909486,-0.22268054 -2.471755,-0.66804163 C 56.129951,-0.9379325 55.768095,-1.5948401 55.606652,-2.4744283 Z m 14.012173,2.47175408 V -1.2274172 c -0.656908,0.93525827 -1.536496,1.40288741 -2.649898,1.40288741 -0.489898,0 -0.95196,-0.08907221 -1.38062,-0.26721665 -0.417526,-0.18927846 -0.729279,-0.42866005 -0.935258,-0.71257774 -0.211547,-0.27835072 -0.350722,-0.62907252 -0.423093,-1.04659852 -0.06124,-0.2672167 -0.08907,-0.7014437 -0.08907,-1.3138152 v -5.1439206 h 1.402887 v 4.6094873 c 0,0.7292787 0.02783,1.2247429 0.08907,1.4919596 0.08907,0.3729899 0.272784,0.6624746 0.556702,0.8684541 0.295051,0.2115465 0.65134,0.3117528 1.068866,0.3117528 0.42866,0 0.823918,-0.1002063 1.180207,-0.3117528 0.367423,-0.2226805 0.629073,-0.5177322 0.779382,-0.8907222 0.161443,-0.3674229 0.244949,-0.9129902 0.244949,-1.6255679 v -4.4536109 h 1.402887 v 8.30598428 z m 9.146603,-2.67216648 1.447424,0.1781444 c -0.239382,0.8461861 -0.668042,1.50866067 -1.291547,1.98185683 -0.612372,0.46206213 -1.397321,0.69030968 -2.360414,0.69030968 -1.219176,0 -2.182269,-0.36742289 -2.894847,-1.11340271 -0.712578,-0.7404128 -1.068867,-1.7870114 -1.068867,-3.1397957 0,-1.3917534 0.356289,-2.477321 1.068867,-3.2511359 0.723712,-0.7682479 1.65897,-1.1579388 2.805775,-1.1579388 1.113402,0 2.015259,0.3785569 2.716702,1.1356707 0.712578,0.7571139 1.068867,1.8204135 1.068867,3.1843318 0,0.077938 0,0.2004125 0,0.3785569 h -6.190519 c 0.04454,0.9074233 0.295052,1.6033 0.757114,2.0931971 0.473196,0.4787632 1.052165,0.71257779 1.736908,0.71257779 0.517732,0 0.957526,-0.13360829 1.313815,-0.40082499 0.367423,-0.2672166 0.668042,-0.6958767 0.890722,-1.2915471 z m -4.631755,-2.2713416 h 4.631755 c -0.06124,-0.6958767 -0.239381,-1.224743 -0.534433,-1.5810319 -0.445361,-0.5344333 -1.02433,-0.8016499 -1.736908,-0.8016499 -0.640207,0 -1.180207,0.2171135 -1.625568,0.6457736 -0.445361,0.434227 -0.69031,1.0131964 -0.734846,1.7369082 z m 15.08104,4.94350808 V -10.112371 h -3.763301 v -1.358351 h 9.085366 v 1.358351 H 90.751209 V -0.00267422 Z M 94.965438,3.2039256 94.809562,1.8678423 c 0.295051,0.089072 0.562268,0.1336084 0.80165,0.1336084 0.311752,0 0.556701,-0.05567 0.734845,-0.1558764 0.189279,-0.1057733 0.345155,-0.2560826 0.467629,-0.4453611 0.08907,-0.1336083 0.228248,-0.48433018 0.423093,-1.04659855 0.02784,-0.0779382 0.07237,-0.18927846 0.133609,-0.33402082 L 94.230592,-8.3086585 h 1.514228 l 1.71464,4.8098997 c 0.222681,0.6123715 0.423093,1.2470111 0.601237,1.9150527 0.161444,-0.6346395 0.356289,-1.2692791 0.57897,-1.8927846 l 1.781443,-4.8321678 H 101.824 L 98.661935,0.13093411 C 98.333481,1.0494913 98.071832,1.6785639 97.882553,2.0237187 97.62647,2.4802138 97.336986,2.8142347 97.014099,3.0257812 96.702346,3.2484617 96.312655,3.359802 95.85616,3.359802 c -0.267217,0 -0.567835,-0.05567 -0.890722,-0.1558764 z m 8.044332,-0.022268 V -8.3086585 h 1.29155 v 1.0911347 c 0.29505,-0.4286601 0.63464,-0.7459799 1.02433,-0.9575264 0.38412,-0.2059795 0.84619,-0.3117527 1.38062,-0.3117527 0.71258,0 1.33608,0.1892784 1.87052,0.5567013 0.54556,0.3562889 0.95752,0.8684541 1.22474,1.5364958 0.27835,0.6569076 0.42309,1.3806193 0.42309,2.1822693 0,0.8461861 -0.15587,1.6144339 -0.46763,2.2936096 -0.30062,0.6847427 -0.73484,1.20247494 -1.31381,1.55876381 -0.57897,0.35628887 -1.19134,0.5344333 -1.82598,0.5344333 -0.47877,0 -0.90186,-0.10020624 -1.26928,-0.2894847 -0.37299,-0.18927847 -0.67918,-0.44536109 -0.91299,-0.75711385 V 3.1816576 Z m 1.29155,-7.2816538 c 0,1.0688666 0.21155,1.8593825 0.64577,2.3604137 0.42866,0.5065983 0.9464,0.75711389 1.55877,0.75711389 0.6235,0 1.15794,-0.25608259 1.6033,-0.77938189 0.44536,-0.5344333 0.66804,-1.3583513 0.66804,-2.4717541 0,-1.0521655 -0.21711,-1.8371144 -0.64577,-2.3604137 -0.43423,-0.5344333 -0.95196,-0.80165 -1.55877,-0.80165 -0.59567,0 -1.12454,0.2839177 -1.58103,0.8461861 -0.46206,0.5678354 -0.69031,1.3806194 -0.69031,2.449486 z m 13.30516,1.4251555 1.44743,0.1781444 c -0.23939,0.8461861 -0.66805,1.50866067 -1.29155,1.98185683 -0.61237,0.46206213 -1.39732,0.69030968 -2.36042,0.69030968 -1.21917,0 -2.18226,-0.36742289 -2.89484,-1.11340271 -0.71258,-0.7404128 -1.06887,-1.7870114 -1.06887,-3.1397957 0,-1.3917534 0.35629,-2.477321 1.06887,-3.2511359 0.72371,-0.7682479 1.65897,-1.1579388 2.80577,-1.1579388 1.11341,0 2.01526,0.3785569 2.71671,1.1356707 0.71257,0.7571139 1.06886,1.8204135 1.06886,3.1843318 0,0.077938 0,0.2004125 0,0.3785569 h -6.19052 c 0.0445,0.9074233 0.29505,1.6033 0.75712,2.0931971 0.47319,0.4787632 1.05216,0.71257779 1.7369,0.71257779 0.51774,0 0.95753,-0.13360829 1.31382,-0.40082499 0.36742,-0.2672166 0.66804,-0.6958767 0.89072,-1.2915471 z m -4.63175,-2.2713416 h 4.63175 c -0.0612,-0.6958767 -0.23938,-1.224743 -0.53443,-1.5810319 -0.44536,-0.5344333 -1.02433,-0.8016499 -1.73691,-0.8016499 -0.64021,0 -1.18021,0.2171135 -1.62557,0.6457736 -0.44536,0.434227 -0.69031,1.0131964 -0.73484,1.7369082 z m 14.9697,8.3059843 c -0.77382,-0.9797944 -1.42516,-2.1265992 -1.95959,-3.42928038 -0.53444,-1.31938222 -0.80165,-2.67773352 -0.80165,-4.07505392 0,-1.2470111 0.20041,-2.438352 0.60124,-3.5851568 0.45649,-1.3026812 1.1802,-2.6109289 2.16,-3.9191779 h 1.00206 c -0.62351,1.085568 -1.04103,1.8593829 -1.24701,2.315878 -0.31175,0.7125777 -0.5567,1.4641246 -0.73485,2.2490735 -0.23938,0.9797944 -0.35629,1.9595888 -0.35629,2.9393832 0,2.5107231 0.77939,5.0103122 2.33815,7.5043343 z m 2.25464,-6.3686636 1.46969,-0.1113402 c 0.11691,0.7125777 0.36742,1.258145 0.75711,1.6255679 0.40083,0.3562889 0.87959,0.53443334 1.44743,0.53443334 0.67917,0 1.25257,-0.25051564 1.71464,-0.75711384 0.47319,-0.5177323 0.71257,-1.2024749 0.71257,-2.048661 0,-0.80165 -0.23381,-1.4307225 -0.69031,-1.8927846 -0.44536,-0.4564951 -1.03546,-0.6903097 -1.75917,-0.6903097 -0.44536,0 -0.85732,0.1057732 -1.22475,0.3117527 -0.37299,0.1948455 -0.66247,0.4564952 -0.86845,0.7793819 l -1.31381,-0.1558763 1.1134,-5.9010346 h 5.70062 v 1.3583515 h -4.58722 l -0.60124,3.0729915 c 0.67918,-0.4731962 1.40289,-0.7125778 2.16,-0.7125778 0.99093,0 1.83155,0.3507219 2.51629,1.0465986 0.69588,0.6847427 1.0466,1.5754648 1.0466,2.6721665 0,1.0243305 -0.30618,1.9150527 -0.91299,2.6721665 -0.72928,0.93525833 -1.73134,1.40288747 -3.00618,1.40288747 -1.04104,0 -1.89279,-0.28948471 -2.56083,-0.86845412 -0.65691,-0.59010345 -1.02433,-1.36948535 -1.1134,-2.33814575 z m 12.3699,3.00618738 V -10.112371 h -3.7633 v -1.358351 h 9.08537 v 1.358351 h -3.78557 v 10.10969678 z m 9.77568,0 V -10.112371 h -3.7633 v -1.358351 h 9.08536 v 1.358351 h -3.78557 v 10.10969678 z m 7.61567,3.36247622 h -1.00206 c 1.55876,-2.4940221 2.33814,-4.9936112 2.33814,-7.5043343 0,-0.9797944 -0.12247,-1.9484548 -0.35628,-2.9171152 -0.17815,-0.7849489 -0.4231,-1.5364957 -0.73485,-2.2490734 -0.21155,-0.4731962 -0.62351,-1.2525781 -1.24701,-2.3381461 h 1.00206 c 0.9798,1.308249 1.69794,2.6164967 2.16,3.9191779 0.40083,1.1468048 0.60124,2.3381457 0.60124,3.5851568 0,1.3973204 -0.26722,2.7556717 -0.80165,4.07505392 -0.53443,1.30268118 -1.19134,2.44948598 -1.95959,3.42928038 z m 0,0"
       style="fill:#000000;fill-opacity:1;fill-rule:nonzero;stroke:none"
       aria-label="Five Tissue Type (5TT)"
       transform="matrix(0.70167783,0,0,0.70167783,39.224233,287.62297)"
       clip-path="url(#clipPath34)" />
    <g
       id="g34" />
    <path
       id="path35"
       d="M 2.360135,-3.9437897e-4 H 1.0463198 V -11.468442 h 1.4028875 v 4.0973216 c 0.5901034,-0.7404128 1.3472172,-1.1134027 2.2713415,-1.1134027 0.5177323,0 1.0020624,0.1057733 1.4474235,0.3117528 0.4564951,0.1948454 0.8350521,0.4843301 1.1356708,0.8684541 0.2950517,0.3729899 0.5232993,0.823918 0.6903097,1.3583513 0.1614434,0.5232993 0.2449486,1.0800006 0.2449486,1.6701041 0,1.4251555 -0.3507219,2.5274242 -1.0465986,3.29567203 -0.7014437,0.77381489 -1.5476297,1.15793883 -2.5385582,1.15793883 -0.9797944,0 -1.7480422,-0.406392 -2.2936096,-1.22474296 z M 2.337867,-4.2090567 c 0,0.9964955 0.1336083,1.7146402 0.400825,2.1600013 0.445361,0.7125778 1.0465985,1.06886663 1.8037124,1.06886663 0.6068044,0 1.1356707,-0.26721663 1.5810318,-0.80164993 0.4564951,-0.5344333 0.6903097,-1.3249493 0.6903097,-2.3826818 0,-1.0800007 -0.2171135,-1.8760836 -0.6457736,-2.3826819 -0.434227,-0.5177322 -0.9519593,-0.7793819 -1.5587638,-0.7793819 -0.6235055,0 -1.1579388,0.2672167 -1.6032999,0.80165 C 2.5605475,-5.990501 2.337867,-5.2166861 2.337867,-4.2090567 Z M 9.9424075,-3.9437897e-4 V -8.3063787 h 1.2692795 v 1.2692791 c 0.311752,-0.5901034 0.601237,-0.9797944 0.868454,-1.1579388 0.27835,-0.1892785 0.584536,-0.2894847 0.91299,-0.2894847 0.473196,0 0.957526,0.1503094 1.447424,0.4453611 l -0.489898,1.3138152 c -0.345155,-0.2059795 -0.684742,-0.3117528 -1.02433,-0.3117528 -0.311753,0 -0.595671,0.1002063 -0.846186,0.2894847 -0.239382,0.1781445 -0.411959,0.4342271 -0.512165,0.7571139 -0.15031,0.5065982 -0.222681,1.0577326 -0.222681,1.647836 V -3.9437897e-4 Z M 20.709012,-1.0247249 c -0.523299,0.44536111 -1.024331,0.75711387 -1.514228,0.9352583 -0.478763,0.17814444 -0.996495,0.26721666 -1.558764,0.26721666 -0.907423,0 -1.6033,-0.22268055 -2.093197,-0.66804164 -0.489897,-0.44536108 -0.734846,-1.00762942 -0.734846,-1.69237212 0,-0.411959 0.08907,-0.7849489 0.267217,-1.1134027 0.189279,-0.3395879 0.434227,-0.6068045 0.734846,-0.80165 0.295052,-0.2059795 0.634639,-0.3618559 1.02433,-0.4676291 0.267217,-0.072371 0.679176,-0.1447424 1.247011,-0.2226806 1.124537,-0.1336083 1.959589,-0.2950517 2.494023,-0.4898972 0.01113,-0.1892784 0.02227,-0.3117527 0.02227,-0.3562888 0,-0.5789694 -0.133609,-0.9853614 -0.400825,-1.224743 -0.356289,-0.3117528 -0.890723,-0.4676292 -1.6033,-0.4676292 -0.668042,0 -1.157939,0.1224743 -1.469692,0.3562889 -0.311753,0.2226805 -0.545567,0.6346396 -0.69031,1.224743 l -1.380619,-0.1781444 c 0.116907,-0.5901035 0.31732,-1.0688667 0.601237,-1.4251555 0.295052,-0.3674229 0.712578,-0.6513406 1.247012,-0.8461861 0.545567,-0.1892785 1.180206,-0.2894847 1.892784,-0.2894847 0.712578,0 1.280413,0.083505 1.71464,0.2449486 0.445361,0.1670104 0.768248,0.3729899 0.979795,0.6235055 0.22268,0.2560827 0.367423,0.5734024 0.445361,0.9575264 0.04454,0.2393815 0.0668,0.6791756 0.0668,1.3138152 v 1.8705165 c 0,1.3082482 0.02783,2.1377333 0.08907,2.49402213 0.05567,0.34515484 0.178145,0.66804163 0.356289,0.97979439103 H 20.976228 C 20.825919,-0.2954461 20.736847,-0.63503393 20.709012,-1.0247249 Z m -0.133608,-3.1397956 c -0.506599,0.2115465 -1.26928,0.3896909 -2.29361,0.5344333 -0.57897,0.077938 -0.990929,0.1670104 -1.224743,0.2672166 -0.239382,0.1057733 -0.423093,0.2616496 -0.556701,0.4676292 -0.133609,0.1948454 -0.200413,0.417526 -0.200413,0.6680416 0,0.3729899 0.139175,0.6847427 0.423093,0.9352583 0.295052,0.2560826 0.718145,0.37855689 1.269279,0.37855689 0.534434,0 1.00763,-0.11690729 1.425156,-0.35628889 0.42866,-0.2338145 0.740412,-0.5622684 0.935258,-0.9797944 0.144742,-0.3117527 0.222681,-0.7793819 0.222681,-1.4028874 z m 3.618558,-5.6783539 v -1.6255676 h 1.402888 v 1.6255676 z m 0,9.84248002103 V -8.3063787 h 1.402888 v 8.30598432103 z m 3.535054,0 V -8.3063787 h 1.269279 v 1.1802069 c 0.606805,-0.9018562 1.49196,-1.3583513 2.649899,-1.3583513 0.501031,0 0.963093,0.089072 1.380619,0.2672167 0.411959,0.1781444 0.723712,0.417526 0.935258,0.7125777 0.20598,0.2839177 0.356289,0.6235055 0.445361,1.0243305 0.04454,0.2672167 0.0668,0.7292788 0.0668,1.3806194 V -3.9437897e-4 H 33.073349 V -5.0552427 c 0,-0.5622684 -0.06124,-0.9853614 -0.178144,-1.2692791 -0.105774,-0.2950517 -0.300619,-0.5232993 -0.57897,-0.6903097 -0.267216,-0.1614434 -0.590103,-0.2449486 -0.957526,-0.2449486 -0.612372,0 -1.130104,0.1948455 -1.558764,0.5789694 -0.434227,0.3729899 -0.645774,1.0855677 -0.645774,2.1377332 V -3.9437897e-4 Z M 40.510879,-2.4721484 41.913767,-2.694829 c 0.07237,0.5511344 0.289484,0.9742274 0.645773,1.2692791 0.356289,0.3006188 0.851753,0.44536113 1.49196,0.44536113 0.65134,0 1.135671,-0.12247433 1.447423,-0.37855693 0.311753,-0.2672166 0.46763,-0.5789694 0.46763,-0.9352583 0,-0.3117527 -0.144743,-0.5622684 -0.423094,-0.7571138 -0.194845,-0.1169073 -0.668041,-0.2727837 -1.425155,-0.4676292 -1.041032,-0.2672166 -1.759176,-0.4898972 -2.160001,-0.6680416 -0.400825,-0.1892785 -0.707011,-0.4509281 -0.912991,-0.7793819 -0.194845,-0.3395878 -0.289484,-0.7181448 -0.289484,-1.1356708 0,-0.3674229 0.07794,-0.7125777 0.244948,-1.0243305 0.161444,-0.3117527 0.389691,-0.5678354 0.69031,-0.7793819 0.222681,-0.1614434 0.517732,-0.2950517 0.890722,-0.400825 0.384124,-0.1169072 0.790516,-0.1781444 1.224743,-0.1781444 0.651341,0 1.224743,0.1002062 1.71464,0.2894847 0.489898,0.1781444 0.851754,0.4342271 1.091135,0.7571139 0.233815,0.3117527 0.400825,0.7348458 0.489897,1.2692791 l -1.380619,0.2004124 c -0.06124,-0.42866 -0.244949,-0.7626808 -0.556701,-1.0020624 -0.300619,-0.2338146 -0.723712,-0.3562889 -1.26928,-0.3562889 -0.640206,0 -1.102268,0.1057733 -1.380619,0.3117528 -0.267217,0.2115465 -0.400825,0.4620621 -0.400825,0.7571138 0,0.1781445 0.0501,0.3451549 0.155876,0.4898972 0.116908,0.1503094 0.300619,0.2783507 0.556702,0.378557 0.133608,0.044536 0.545567,0.1670104 1.247011,0.3562888 0.990928,0.2672167 1.681238,0.4898972 2.070929,0.6680417 0.400825,0.1670104 0.712578,0.411959 0.935258,0.7348458 0.222681,0.3117527 0.334021,0.7070107 0.334021,1.1802068 0,0.4787632 -0.144742,0.9241243 -0.423093,1.3360833 -0.267217,0.41752602 -0.662475,0.7348458 -1.180207,0.95752634 -0.523299,0.22268054 -1.102269,0.33402082 -1.736908,0.33402082 -1.085568,0 -1.909486,-0.22268055 -2.471754,-0.66804164 -0.567836,-0.44536108 -0.929691,-1.10226872 -1.091135,-1.98185682 z m 14.257122,-0.2004125 1.447424,0.1781444 c -0.239382,0.8461861 -0.668042,1.50866071 -1.291548,1.98185687 -0.612371,0.46206213 -1.39732,0.69030969 -2.360413,0.69030969 -1.219176,0 -2.18227,-0.3674229 -2.894847,-1.11340272 C 48.956039,-1.6760655 48.59975,-2.722664 48.59975,-4.0754483 c 0,-1.3917534 0.356289,-2.4773211 1.068867,-3.251136 0.723711,-0.7682478 1.65897,-1.1579388 2.805774,-1.1579388 1.113403,0 2.015259,0.3785569 2.716703,1.1356708 0.712578,0.7571138 1.068867,1.8204134 1.068867,3.1843318 0,0.077938 0,0.2004124 0,0.3785569 h -6.190519 c 0.04454,0.9074232 0.295051,1.6032999 0.757113,2.0931971 0.473197,0.4787632 1.052166,0.71257773 1.736909,0.71257773 0.517732,0 0.957526,-0.13360833 1.313815,-0.40082503 0.367423,-0.2672166 0.668041,-0.6958766 0.890722,-1.2915471 z m -4.631755,-2.2713416 h 4.631755 c -0.06124,-0.6958766 -0.239382,-1.2247429 -0.534433,-1.5810318 -0.445361,-0.5344333 -1.024331,-0.80165 -1.736909,-0.80165 -0.640206,0 -1.180206,0.2171136 -1.625568,0.6457736 -0.445361,0.4342271 -0.690309,1.0131965 -0.734845,1.7369082 z m 7.587839,5.63381781 1.358352,0.20041249 c 0.05567,0.411959 0.22268,0.7181447 0.489897,0.9129902 0.339588,0.2672167 0.812784,0.400825 1.425155,0.400825 0.651341,0 1.157939,-0.1336083 1.514228,-0.400825 0.356289,-0.2560826 0.590103,-0.6179385 0.712578,-1.09113464 0.07237,-0.28391769 0.11134,-0.87958815 0.11134,-1.80371236 -0.623506,0.72927874 -1.39732,1.09113462103 -2.315878,1.09113462103 -1.146805,0 -2.026393,-0.40639199103 -2.649898,-1.22474302103 -0.623506,-0.829485 -0.935258,-1.8259804 -0.935258,-2.9839193 0,-0.7849489 0.139175,-1.5142277 0.423093,-2.1822693 0.295051,-0.6680416 0.712577,-1.1802069 1.247011,-1.5364957 0.545567,-0.3674229 1.191341,-0.5567014 1.93732,-0.5567014 0.979795,0 1.781445,0.395258 2.40495,1.1802069 v -1.0020625 h 1.313815 v 7.1703135 c 0,1.30268123 -0.133608,2.2268055 -0.400825,2.7612388 -0.267216,0.5344333 -0.690309,0.9575263 -1.269279,1.2692791 -0.567835,0.3117528 -1.263712,0.4676291 -2.093197,0.4676291 -0.979794,0 -1.781444,-0.2226805 -2.40495,-0.6680416 C 57.980168,2.2486791 57.690683,1.5806375 57.724085,0.68991531 Z m 1.157939,-4.98804421 c 0,1.0855677 0.211547,1.8816506 0.645774,2.3826818 0.42866,0.5065983 0.96866,0.7571139 1.625568,0.7571139 0.65134,0 1.191341,-0.2449486 1.625568,-0.7348458 0.445361,-0.5010312 0.668041,-1.2915472 0.668041,-2.3604138 0,-1.0076294 -0.233814,-1.7703103 -0.690309,-2.2936096 -0.445362,-0.5177322 -0.990929,-0.7793819 -1.625568,-0.7793819 -0.623506,0 -1.157939,0.2616497 -1.6033,0.7793819 -0.434227,0.5065983 -0.645774,1.2581451 -0.645774,2.2490735 z m 7.983098,4.29773452103 V -8.3063787 h 1.269279 v 1.1579389 c 0.250515,-0.400825 0.590103,-0.7181448 1.02433,-0.9575264 0.445361,-0.2505156 0.940825,-0.3785569 1.49196,-0.3785569 0.606804,0 1.102268,0.1280413 1.491959,0.3785569 0.400825,0.2560827 0.679176,0.6123715 0.846186,1.0688666 0.668042,-0.9630933 1.519795,-1.4474235 2.560827,-1.4474235 0.829485,0 1.469691,0.2338146 1.915052,0.6903097 0.445362,0.4453611 0.668042,1.1468048 0.668042,2.0931971 V -3.9437897e-4 H 76.72987 V -5.2333872 c 0,-0.5622683 -0.05567,-0.9630933 -0.155877,-1.2024749 -0.08907,-0.2505156 -0.256082,-0.4509281 -0.489897,-0.6012375 -0.239382,-0.1447423 -0.523299,-0.2226805 -0.846186,-0.2226805 -0.578969,0 -1.0633,0.1948455 -1.447424,0.5789694 -0.38969,0.389691 -0.578969,1.0020625 -0.578969,1.8482485 V -3.9437897e-4 H 71.80863 V -5.3892635 c 0,-0.6235056 -0.122475,-1.0911347 -0.356289,-1.4028875 -0.222681,-0.3117527 -0.595671,-0.4676291 -1.113403,-0.4676291 -0.400825,0 -0.773815,0.1057733 -1.113403,0.3117528 -0.328453,0.2115465 -0.567835,0.5121652 -0.712577,0.9129902 -0.15031,0.400825 -0.222681,0.9797944 -0.222681,1.7369082 V -3.9437897e-4 Z M 85.893174,-2.6725609 l 1.447424,0.1781444 c -0.239382,0.8461861 -0.668042,1.50866071 -1.291548,1.98185687 -0.612371,0.46206213 -1.39732,0.69030969 -2.360413,0.69030969 -1.219176,0 -2.18227,-0.3674229 -2.894847,-1.11340272 -0.712578,-0.74041284 -1.068867,-1.78701134 -1.068867,-3.13979564 0,-1.3917534 0.356289,-2.4773211 1.068867,-3.251136 0.723711,-0.7682478 1.65897,-1.1579388 2.805774,-1.1579388 1.113403,0 2.015259,0.3785569 2.716703,1.1356708 0.712578,0.7571138 1.068867,1.8204134 1.068867,3.1843318 0,0.077938 0,0.2004124 0,0.3785569 h -6.190519 c 0.04454,0.9074232 0.295051,1.6032999 0.757113,2.0931971 0.473197,0.4787632 1.052166,0.71257773 1.736909,0.71257773 0.517732,0 0.957526,-0.13360833 1.313815,-0.40082503 0.367423,-0.2672166 0.668041,-0.6958766 0.890722,-1.2915471 z m -4.631755,-2.2713416 h 4.631755 c -0.06124,-0.6958766 -0.239382,-1.2247429 -0.534433,-1.5810318 -0.445361,-0.5344333 -1.024331,-0.80165 -1.736909,-0.80165 -0.640206,0 -1.180206,0.2171136 -1.625568,0.6457736 -0.445361,0.4342271 -0.690309,1.0131965 -0.734845,1.7369082 z m 7.832788,4.94350812103 V -8.3063787 h 1.269279 v 1.1802069 c 0.606804,-0.9018562 1.49196,-1.3583513 2.649898,-1.3583513 0.501032,0 0.963094,0.089072 1.38062,0.2672167 0.411959,0.1781444 0.723712,0.417526 0.935258,0.7125777 0.20598,0.2839177 0.356289,0.6235055 0.445361,1.0243305 0.04454,0.2672167 0.0668,0.7292788 0.0668,1.3806194 V -3.9437897e-4 H 94.43854 V -5.0552427 c 0,-0.5622684 -0.06124,-0.9853614 -0.178145,-1.2692791 -0.105773,-0.2950517 -0.300618,-0.5232993 -0.578969,-0.6903097 -0.267217,-0.1614434 -0.590103,-0.2449486 -0.957526,-0.2449486 -0.612372,0 -1.130104,0.1948455 -1.558764,0.5789694 -0.434227,0.3729899 -0.645774,1.0855677 -0.645774,2.1377332 V -3.9437897e-4 Z M 101.06329,-1.2696735 l 0.20041,1.24701107 c -0.38969,0.08907221 -0.73485,0.13360832 -1.0466,0.13360832 -0.523299,0 -0.924124,-0.0835052 -1.202475,-0.2449486 C 98.730707,-0.2954461 98.530295,-0.5014256 98.413388,-0.75750823 98.307614,-1.0247249 98.257511,-1.5814262 98.257511,-2.4276123 V -7.215244 h -1.02433 v -1.0911347 h 1.02433 V -10.35504 l 1.402888,-0.846186 v 2.8948473 h 1.402891 v 1.0911347 h -1.402891 v 4.8544359 c 0,0.4008249 0.02227,0.6624746 0.0668,0.7793819 0.04454,0.1224743 0.122474,0.2171135 0.244948,0.2894847 0.116913,0.061237 0.278353,0.089072 0.489903,0.089072 0.14474,0 0.34515,-0.022268 0.60124,-0.066804 z m 6.80845,0.2449486 c -0.5233,0.44536111 -1.02433,0.75711387 -1.51422,0.9352583 -0.47877,0.17814444 -0.9965,0.26721666 -1.55877,0.26721666 -0.90742,0 -1.6033,-0.22268055 -2.09319,-0.66804164 -0.4899,-0.44536108 -0.73485,-1.00762942 -0.73485,-1.69237212 0,-0.411959 0.0891,-0.7849489 0.26722,-1.1134027 0.18927,-0.3395879 0.43422,-0.6068045 0.73484,-0.80165 0.29505,-0.2059795 0.63464,-0.3618559 1.02433,-0.4676291 0.26722,-0.072371 0.67918,-0.1447424 1.24701,-0.2226806 1.12454,-0.1336083 1.95959,-0.2950517 2.49403,-0.4898972 0.0111,-0.1892784 0.0223,-0.3117527 0.0223,-0.3562888 0,-0.5789694 -0.1336,-0.9853614 -0.40082,-1.224743 -0.35629,-0.3117528 -0.89072,-0.4676292 -1.6033,-0.4676292 -0.66804,0 -1.15794,0.1224743 -1.46969,0.3562889 -0.31176,0.2226805 -0.54557,0.6346396 -0.69031,1.224743 l -1.38062,-0.1781444 c 0.11691,-0.5901035 0.31732,-1.0688667 0.60124,-1.4251555 0.29505,-0.3674229 0.71257,-0.6513406 1.24701,-0.8461861 0.54556,-0.1892785 1.1802,-0.2894847 1.89278,-0.2894847 0.71258,0 1.28041,0.083505 1.71464,0.2449486 0.44536,0.1670104 0.76825,0.3729899 0.9798,0.6235055 0.22268,0.2560827 0.36742,0.5734024 0.44536,0.9575264 0.0445,0.2393815 0.0668,0.6791756 0.0668,1.3138152 v 1.8705165 c 0,1.3082482 0.0278,2.1377333 0.0891,2.49402213 0.0557,0.34515484 0.17815,0.66804163 0.35629,0.97979439103 h -1.46969 C 107.98865,-0.2954461 107.89958,-0.63503393 107.87174,-1.0247249 Z m -0.1336,-3.1397956 c -0.5066,0.2115465 -1.26928,0.3896909 -2.29361,0.5344333 -0.57897,0.077938 -0.99093,0.1670104 -1.22475,0.2672166 -0.23938,0.1057733 -0.42309,0.2616496 -0.5567,0.4676292 -0.13361,0.1948454 -0.20041,0.417526 -0.20041,0.6680416 0,0.3729899 0.13917,0.6847427 0.42309,0.9352583 0.29505,0.2560826 0.71815,0.37855689 1.26928,0.37855689 0.53443,0 1.00763,-0.11690729 1.42516,-0.35628889 0.42866,-0.2338145 0.74041,-0.5622684 0.93525,-0.9797944 0.14475,-0.3117527 0.22269,-0.7793819 0.22269,-1.4028874 z m 6.66928,2.894847 0.20041,1.24701107 c -0.38969,0.08907221 -0.73485,0.13360832 -1.0466,0.13360832 -0.5233,0 -0.92412,-0.0835052 -1.20247,-0.2449486 -0.28392,-0.16144339 -0.48433,-0.36742289 -0.60124,-0.62350552 -0.10577,-0.26721667 -0.15588,-0.82391797 -0.15588,-1.67010407 V -7.215244 h -1.02433 v -1.0911347 h 1.02433 V -10.35504 l 1.40289,-0.846186 v 2.8948473 h 1.40289 v 1.0911347 h -1.40289 v 4.8544359 c 0,0.4008249 0.0223,0.6624746 0.0668,0.7793819 0.0445,0.1224743 0.12248,0.2171135 0.24495,0.2894847 0.11691,0.061237 0.27835,0.089072 0.4899,0.089072 0.14474,0 0.34516,-0.022268 0.60124,-0.066804 z m 1.39732,-8.5732009 v -1.6255676 h 1.40289 v 1.6255676 z m 0,9.84248002103 V -8.3063787 h 1.40289 V -3.9437897e-4 Z M 118.82206,-4.1422525 c 0,-1.5420628 0.42309,-2.6833005 1.26928,-3.4292804 0.72371,-0.6068044 1.6033,-0.9129902 2.62763,-0.9129902 1.14124,0 2.07093,0.3729899 2.78351,1.1134027 0.72371,0.7459798 1.09113,1.7758774 1.09113,3.0952596 0,1.0688666 -0.16701,1.9150527 -0.4899,2.5385582 -0.31175,0.6123715 -0.77381,1.08556763 -1.38062,1.42515546 -0.61237,0.32288679 -1.28041,0.4898972 -2.00412,0.4898972 -1.17464,0 -2.11547,-0.3674229 -2.82804,-1.11340272 -0.71258,-0.74041284 -1.06887,-1.80927944 -1.06887,-3.20659984 z m 1.44742,0 c 0,1.0577326 0.22825,1.8482485 0.69031,2.3826818 0.4565,0.5232993 1.0466,0.77938193 1.75918,0.77938193 0.69588,0 1.27485,-0.25608263 1.73691,-0.77938193 0.45649,-0.5344333 0.69031,-1.3472173 0.69031,-2.449486 0,-1.0243305 -0.23938,-1.7925783 -0.71258,-2.3158776 -0.46206,-0.5344333 -1.03547,-0.80165 -1.71464,-0.80165 -0.71258,0 -1.30268,0.2672167 -1.75918,0.80165 -0.46206,0.5232993 -0.69031,1.3138152 -0.69031,2.3826818 z m 7.9664,4.14185812103 V -8.3063787 h 1.26928 v 1.1802069 c 0.6068,-0.9018562 1.49196,-1.3583513 2.6499,-1.3583513 0.50103,0 0.96309,0.089072 1.38062,0.2672167 0.41196,0.1781444 0.72371,0.417526 0.93525,0.7125777 0.20598,0.2839177 0.35629,0.6235055 0.44537,1.0243305 0.0445,0.2672167 0.0668,0.7292788 0.0668,1.3806194 v 5.09938442103 h -1.40289 V -5.0552427 c 0,-0.5622684 -0.0612,-0.9853614 -0.17814,-1.2692791 -0.10578,-0.2950517 -0.30062,-0.5232993 -0.57897,-0.6903097 -0.26722,-0.1614434 -0.5901,-0.2449486 -0.95753,-0.2449486 -0.61237,0 -1.1301,0.1948455 -1.55876,0.5789694 -0.43423,0.3729899 -0.64578,1.0855677 -0.64578,2.1377332 v 4.54268312103 z m 0,0"
       style="fill:#000000;fill-opacity:1;fill-rule:nonzero;stroke:none"
       aria-label="brain segmentation"
       transform="matrix(0.70167783,0,0,0.70167783,48.773633,301.65653)"
       clip-path="url(#clipPath36)" />
    <path
       id="path37"
       d="m 260,560 v 33.63"
       style="fill:none;stroke:#000000;stroke-width:1;stroke-linecap:butt;stroke-linejoin:miter;stroke-miterlimit:10;stroke-dasharray:none;stroke-opacity:1"
       transform="matrix(0.70167783,0,0,0.70167783,-85.56478,-147.76812)"
       clip-path="url(#clipPath38)" />
    <path
       id="path39"
       d="m 260,598.88 -3.5,-7 3.5,1.75 3.5,-1.75 z"
       style="fill:#000000;fill-opacity:1;fill-rule:nonzero;stroke:#000000;stroke-width:1;stroke-linecap:butt;stroke-linejoin:miter;stroke-miterlimit:10;stroke-dasharray:none;stroke-opacity:1"
       transform="matrix(0.70167783,0,0,0.70167783,-85.56478,-147.76812)"
       clip-path="url(#clipPath40)" />
  </g>
</svg>
